<?xml version="1.0" encoding="UTF-8" standalone="no"?>
<!-- Created with Inkscape (http://www.inkscape.org/) -->

<svg
   width="512"
   height="512"
   viewBox="0 0 135.46667 135.46667"
   version="1.1"
   id="svg1"
   xml:space="preserve"
   sodipodi:docname="zonaPitsLogoSVG.svg"
   inkscape:version="1.3.2 (091e20e, 2023-11-25, custom)"
   xmlns:inkscape="http://www.inkscape.org/namespaces/inkscape"
   xmlns:sodipodi="http://sodipodi.sourceforge.net/DTD/sodipodi-0.dtd"
   xmlns="http://www.w3.org/2000/svg"
   xmlns:svg="http://www.w3.org/2000/svg"><sodipodi:namedview
     id="namedview1"
     pagecolor="#ffffff"
     bordercolor="#000000"
     borderopacity="0.25"
     inkscape:showpageshadow="2"
     inkscape:pageopacity="0.0"
     inkscape:pagecheckerboard="0"
     inkscape:deskcolor="#d1d1d1"
     inkscape:zoom="1.3789062"
     inkscape:cx="255.63739"
     inkscape:cy="255.63739"
     inkscape:window-width="1920"
     inkscape:window-height="991"
     inkscape:window-x="-9"
     inkscape:window-y="-9"
     inkscape:window-maximized="1"
     inkscape:current-layer="svg1" /><defs
     id="defs1"><clipPath
       clipPathUnits="userSpaceOnUse"
       id="clipPath1"><g
         id="g2"
         style="stroke-width:0.633749"
         transform="matrix(1.6008835,0,0,1.5552641,-77.001587,-135.638)"><path
           d="m 69.262042,21.396317 c -14.973819,-0.10776 -30.351893,3.423119 -46.17052,10.914409 l 0.110563,57.588498 c 1.469755,8.362869 7.094304,13.854916 14.12137,18.378686 9.278417,7.56323 20.213464,13.45421 30.559925,19.93905 11.040693,-6.54298 22.178611,-12.74217 32.65603,-21.27552 7.63613,-4.93612 11.21544,-10.847578 12.68781,-17.265406 L 113.00609,32.310726 C 98.805295,25.249819 84.235769,21.503897 69.261981,21.396317 Z m -0.110026,5.341324 c 13.476458,0.0968 26.588729,3.467422 39.369464,9.822256 l 0.19889,51.629089 c -1.32513,5.77605 -4.54653,11.096168 -11.419013,15.538664 -9.4297,7.68003 -19.453955,13.2593 -29.390565,19.14797 C 58.598962,117.03926 48.757647,111.73764 40.40706,104.93075 34.082691,100.85936 29.020459,95.916329 27.697688,88.389721 L 27.59824,36.559897 C 41.834989,29.81772 55.675653,26.640799 69.152079,26.737641 Z"
           style="fill:#052658;fill-opacity:1;stroke-width:0.633749;stroke-linecap:round;stroke-linejoin:round;stroke-miterlimit:12.5;stroke-dasharray:none;stroke-dashoffset:0.19578;paint-order:markers stroke fill"
           id="path1" /></g></clipPath></defs><g
     id="layer1"><g
       id="g1143"
       transform="matrix(0.62465509,0,0,0.64297764,48.099433,87.212198)"
       style="fill:#ff0000;stroke-width:1.57791"
       clip-path="url(#clipPath1)"><g
         id="g929"
         transform="translate(14.224466,-45.503816)"
         style="fill:#ff0000;stroke-width:1.57791"><g
           id="g893"
           style="fill:#ff0000;stroke-width:1.57791"><g
             id="g875"
             transform="matrix(0.50000001,0,0,0.49864936,4.9243326,-46.170183)"
             style="fill:#ff0000;stroke-width:3.16008"><g
               id="g866"
               transform="translate(0.87317381,-3.519007)"
               style="fill:#ff0000;stroke-width:3.16008"><g
                 id="g861"
                 style="fill:#ff0000;stroke-width:3.16008" /><g
                 id="g865"
                 transform="translate(17.732496,8.126791)"
                 style="fill:#ff0000;stroke-width:3.16008" /></g><g
               id="g874"
               transform="translate(0.87317381,-43.735695)"
               style="fill:#ff0000;stroke-width:3.16008"><g
                 id="g869"
                 style="fill:#ff0000;stroke-width:3.16008" /><g
                 id="g873"
                 transform="translate(17.732496,8.126791)"
                 style="fill:#ff0000;stroke-width:3.16008" /></g></g><g
             id="g892"
             transform="matrix(0.50000001,0,0,0.49864936,44.924331,-46.116157)"
             style="fill:#ff0000;stroke-width:3.16008"><g
               id="g883"
               transform="translate(0.87317381,-3.519007)"
               style="fill:#ff0000;stroke-width:3.16008"><g
                 id="g878"
                 style="fill:#ff0000;stroke-width:3.16008" /><g
                 id="g882"
                 transform="translate(17.732496,8.126791)"
                 style="fill:#ff0000;stroke-width:3.16008" /></g><g
               id="g891"
               transform="translate(0.87317381,-43.735695)"
               style="fill:#ff0000;stroke-width:3.16008"><g
                 id="g886"
                 style="fill:#ff0000;stroke-width:3.16008" /><g
                 id="g890"
                 transform="translate(17.732496,8.126791)"
                 style="fill:#ff0000;stroke-width:3.16008" /></g></g></g><g
           id="g928"
           transform="translate(6.2499999e-7,-40.054026)"
           style="fill:#ff0000;stroke-width:1.57791"><g
             id="g910"
             transform="matrix(0.50000001,0,0,0.49864936,4.9243326,-46.170183)"
             style="fill:#ff0000;stroke-width:3.16008"><g
               id="g901"
               transform="translate(0.87317381,-3.519007)"
               style="fill:#ff0000;stroke-width:3.16008"><g
                 id="g896"
                 style="fill:#ff0000;stroke-width:3.16008" /><g
                 id="g900"
                 transform="translate(17.732496,8.126791)"
                 style="fill:#ff0000;stroke-width:3.16008" /></g><g
               id="g909"
               transform="translate(0.87317381,-43.735695)"
               style="fill:#ff0000;stroke-width:3.16008"><g
                 id="g904"
                 style="fill:#ff0000;stroke-width:3.16008" /><g
                 id="g908"
                 transform="translate(17.732496,8.126791)"
                 style="fill:#ff0000;stroke-width:3.16008" /></g></g><g
             id="g927"
             transform="matrix(0.50000001,0,0,0.49864936,44.924331,-46.116157)"
             style="fill:#ff0000;stroke-width:3.16008"><g
               id="g918"
               transform="translate(0.87317381,-3.519007)"
               style="fill:#ff0000;stroke-width:3.16008"><g
                 id="g913"
                 style="fill:#ff0000;stroke-width:3.16008" /><g
                 id="g917"
                 transform="translate(17.732496,8.126791)"
                 style="fill:#ff0000;stroke-width:3.16008" /></g><g
               id="g926"
               transform="translate(0.87317381,-43.735695)"
               style="fill:#ff0000;stroke-width:3.16008"><g
                 id="g921"
                 style="fill:#ff0000;stroke-width:3.16008" /><g
                 id="g925"
                 transform="translate(17.732496,8.126791)"
                 style="fill:#ff0000;stroke-width:3.16008" /></g></g></g></g><g
         id="g1000"
         transform="translate(94.169282,-45.44979)"
         style="fill:#ff0000;stroke-width:1.57791"><g
           id="g964"
           style="fill:#ff0000;stroke-width:1.57791"><g
             id="g946"
             transform="matrix(0.50000001,0,0,0.49864936,4.9243326,-46.170183)"
             style="fill:#ff0000;stroke-width:3.16008"><g
               id="g937"
               transform="translate(0.87317381,-3.519007)"
               style="fill:#ff0000;stroke-width:3.16008"><g
                 id="g932"
                 style="fill:#ff0000;stroke-width:3.16008" /><g
                 id="g936"
                 transform="translate(17.732496,8.126791)"
                 style="fill:#ff0000;stroke-width:3.16008" /></g><g
               id="g945"
               transform="translate(0.87317381,-43.735695)"
               style="fill:#ff0000;stroke-width:3.16008"><g
                 id="g940"
                 style="fill:#ff0000;stroke-width:3.16008" /><g
                 id="g944"
                 transform="translate(17.732496,8.126791)"
                 style="fill:#ff0000;stroke-width:3.16008" /></g></g><g
             id="g963"
             transform="matrix(0.50000001,0,0,0.49864936,44.924331,-46.116157)"
             style="fill:#ff0000;stroke-width:3.16008"><g
               id="g954"
               transform="translate(0.87317381,-3.519007)"
               style="fill:#ff0000;stroke-width:3.16008"><g
                 id="g949"
                 style="fill:#ff0000;stroke-width:3.16008" /><g
                 id="g953"
                 transform="translate(17.732496,8.126791)"
                 style="fill:#ff0000;stroke-width:3.16008" /></g><g
               id="g962"
               transform="translate(0.87317381,-43.735695)"
               style="fill:#ff0000;stroke-width:3.16008"><g
                 id="g957"
                 style="fill:#ff0000;stroke-width:3.16008" /><g
                 id="g961"
                 transform="translate(17.732496,8.126791)"
                 style="fill:#ff0000;stroke-width:3.16008" /></g></g></g><g
           id="g999"
           transform="translate(6.2499999e-7,-40.054026)"
           style="fill:#ff0000;stroke-width:1.57791"><g
             id="g981"
             transform="matrix(0.50000001,0,0,0.49864936,4.9243326,-46.170183)"
             style="fill:#ff0000;stroke-width:3.16008"><g
               id="g972"
               transform="translate(0.87317381,-3.519007)"
               style="fill:#ff0000;stroke-width:3.16008"><g
                 id="g967"
                 style="fill:#ff0000;stroke-width:3.16008" /><g
                 id="g971"
                 transform="translate(17.732496,8.126791)"
                 style="fill:#ff0000;stroke-width:3.16008" /></g><g
               id="g980"
               transform="translate(0.87317381,-43.735695)"
               style="fill:#ff0000;stroke-width:3.16008"><g
                 id="g975"
                 style="fill:#ff0000;stroke-width:3.16008" /><g
                 id="g979"
                 transform="translate(17.732496,8.126791)"
                 style="fill:#ff0000;stroke-width:3.16008" /></g></g><g
             id="g998"
             transform="matrix(0.50000001,0,0,0.49864936,44.924331,-46.116157)"
             style="fill:#ff0000;stroke-width:3.16008"><g
               id="g989"
               transform="translate(0.87317381,-3.519007)"
               style="fill:#ff0000;stroke-width:3.16008"><g
                 id="g984"
                 style="fill:#ff0000;stroke-width:3.16008" /><g
                 id="g988"
                 transform="translate(17.732496,8.126791)"
                 style="fill:#ff0000;stroke-width:3.16008" /></g><g
               id="g997"
               transform="translate(0.87317381,-43.735695)"
               style="fill:#ff0000;stroke-width:3.16008"><g
                 id="g992"
                 style="fill:#ff0000;stroke-width:3.16008" /><g
                 id="g996"
                 transform="translate(17.732496,8.126791)"
                 style="fill:#ff0000;stroke-width:3.16008" /></g></g></g></g><g
         id="g1071"
         transform="translate(14.279647,34.712287)"
         style="fill:#ff0000;stroke-width:1.57791"><g
           id="g1035"
           style="fill:#ff0000;stroke-width:1.57791"><g
             id="g1017"
             transform="matrix(0.50000001,0,0,0.49864936,4.9243326,-46.170183)"
             style="fill:#ff0000;stroke-width:3.16008"><g
               id="g1008"
               transform="translate(0.87317381,-3.519007)"
               style="fill:#ff0000;stroke-width:3.16008"><g
                 id="g1003"
                 style="fill:#ff0000;stroke-width:3.16008" /><g
                 id="g1007"
                 transform="translate(17.732496,8.126791)"
                 style="fill:#ff0000;stroke-width:3.16008" /></g><g
               id="g1016"
               transform="translate(0.87317381,-43.735695)"
               style="fill:#ff0000;stroke-width:3.16008"><g
                 id="g1011"
                 style="fill:#ff0000;stroke-width:3.16008" /><g
                 id="g1015"
                 transform="translate(17.732496,8.126791)"
                 style="fill:#ff0000;stroke-width:3.16008" /></g></g><g
             id="g1034"
             transform="matrix(0.50000001,0,0,0.49864936,44.924331,-46.116157)"
             style="fill:#ff0000;stroke-width:3.16008"><g
               id="g1025"
               transform="translate(0.87317381,-3.519007)"
               style="fill:#ff0000;stroke-width:3.16008"><g
                 id="g1020"
                 style="fill:#ff0000;stroke-width:3.16008" /><g
                 id="g1024"
                 transform="translate(17.732496,8.126791)"
                 style="fill:#ff0000;stroke-width:3.16008" /></g><g
               id="g1033"
               transform="translate(0.87317381,-43.735695)"
               style="fill:#ff0000;stroke-width:3.16008"><g
                 id="g1028"
                 style="fill:#ff0000;stroke-width:3.16008" /><g
                 id="g1032"
                 transform="translate(17.732496,8.126791)"
                 style="fill:#ff0000;stroke-width:3.16008" /></g></g></g><g
           id="g1070"
           transform="translate(6.2499999e-7,-40.054026)"
           style="fill:#ff0000;stroke-width:1.57791"><g
             id="g1052"
             transform="matrix(0.50000001,0,0,0.49864936,4.9243326,-46.170183)"
             style="fill:#ff0000;stroke-width:3.16008"><g
               id="g1043"
               transform="translate(0.87317381,-3.519007)"
               style="fill:#ff0000;stroke-width:3.16008"><g
                 id="g1038"
                 style="fill:#ff0000;stroke-width:3.16008" /><g
                 id="g1042"
                 transform="translate(17.732496,8.126791)"
                 style="fill:#ff0000;stroke-width:3.16008" /></g><g
               id="g1051"
               transform="translate(0.87317381,-43.735695)"
               style="fill:#ff0000;stroke-width:3.16008"><g
                 id="g1046"
                 style="fill:#ff0000;stroke-width:3.16008" /><g
                 id="g1050"
                 transform="translate(17.732496,8.126791)"
                 style="fill:#ff0000;stroke-width:3.16008" /></g></g><g
             id="g1069"
             transform="matrix(0.50000001,0,0,0.49864936,44.924331,-46.116157)"
             style="fill:#ff0000;stroke-width:3.16008"><g
               id="g1060"
               transform="translate(0.87317381,-3.519007)"
               style="fill:#ff0000;stroke-width:3.16008"><g
                 id="g1055"
                 style="fill:#ff0000;stroke-width:3.16008" /><g
                 id="g1059"
                 transform="translate(17.732496,8.126791)"
                 style="fill:#ff0000;stroke-width:3.16008" /></g><g
               id="g1068"
               transform="translate(0.87317381,-43.735695)"
               style="fill:#ff0000;stroke-width:3.16008"><g
                 id="g1063"
                 style="fill:#ff0000;stroke-width:3.16008" /><g
                 id="g1067"
                 transform="translate(17.732496,8.126791)"
                 style="fill:#ff0000;stroke-width:3.16008" /></g></g></g></g><g
         id="g1142"
         transform="translate(94.114102,34.766313)"
         style="fill:#ff0000;stroke-width:1.57791"><g
           id="g1106"
           style="fill:#ff0000;stroke-width:1.57791"><g
             id="g1088"
             transform="matrix(0.50000001,0,0,0.49864936,4.9243326,-46.170183)"
             style="fill:#ff0000;stroke-width:3.16008"><g
               id="g1079"
               transform="translate(0.87317381,-3.519007)"
               style="fill:#ff0000;stroke-width:3.16008"><g
                 id="g1074"
                 style="fill:#ff0000;stroke-width:3.16008" /><g
                 id="g1078"
                 transform="translate(17.732496,8.126791)"
                 style="fill:#ff0000;stroke-width:3.16008" /></g><g
               id="g1087"
               transform="translate(0.87317381,-43.735695)"
               style="fill:#ff0000;stroke-width:3.16008"><g
                 id="g1082"
                 style="fill:#ff0000;stroke-width:3.16008" /><g
                 id="g1086"
                 transform="translate(17.732496,8.126791)"
                 style="fill:#ff0000;stroke-width:3.16008" /></g></g><g
             id="g1105"
             transform="matrix(0.50000001,0,0,0.49864936,44.924331,-46.116157)"
             style="fill:#ff0000;stroke-width:3.16008"><g
               id="g1096"
               transform="translate(0.87317381,-3.519007)"
               style="fill:#ff0000;stroke-width:3.16008"><g
                 id="g1091"
                 style="fill:#ff0000;stroke-width:3.16008" /><g
                 id="g1095"
                 transform="translate(17.732496,8.126791)"
                 style="fill:#ff0000;stroke-width:3.16008" /></g><g
               id="g1104"
               transform="translate(0.87317381,-43.735695)"
               style="fill:#ff0000;stroke-width:3.16008"><g
                 id="g1099"
                 style="fill:#ff0000;stroke-width:3.16008" /><g
                 id="g1103"
                 transform="translate(17.732496,8.126791)"
                 style="fill:#ff0000;stroke-width:3.16008" /></g></g></g><g
           id="g1141"
           transform="translate(6.2499999e-7,-40.054026)"
           style="fill:#ff0000;stroke-width:1.57791"><g
             id="g1123"
             transform="matrix(0.50000001,0,0,0.49864936,4.9243326,-46.170183)"
             style="fill:#ff0000;stroke-width:3.16008"><g
               id="g1114"
               transform="translate(0.87317381,-3.519007)"
               style="fill:#ff0000;stroke-width:3.16008"><g
                 id="g1109"
                 style="fill:#ff0000;stroke-width:3.16008" /><g
                 id="g1113"
                 transform="translate(17.732496,8.126791)"
                 style="fill:#ff0000;stroke-width:3.16008" /></g><g
               id="g1122"
               transform="translate(0.87317381,-43.735695)"
               style="fill:#ff0000;stroke-width:3.16008"><g
                 id="g1117"
                 style="fill:#ff0000;stroke-width:3.16008" /><g
                 id="g1121"
                 transform="translate(17.732496,8.126791)"
                 style="fill:#ff0000;stroke-width:3.16008" /></g></g><g
             id="g1140"
             transform="matrix(0.50000001,0,0,0.49864936,44.924331,-46.116157)"
             style="fill:#ff0000;stroke-width:3.16008"><g
               id="g1131"
               transform="translate(0.87317381,-3.519007)"
               style="fill:#ff0000;stroke-width:3.16008"><g
                 id="g1126"
                 style="fill:#ff0000;stroke-width:3.16008" /><g
                 id="g1130"
                 transform="translate(17.732496,8.126791)"
                 style="fill:#ff0000;stroke-width:3.16008" /></g><g
               id="g1139"
               transform="translate(0.87317381,-43.735695)"
               style="fill:#ff0000;stroke-width:3.16008"><g
                 id="g1134"
                 style="fill:#ff0000;stroke-width:3.16008" /><g
                 id="g1138"
                 transform="translate(17.732496,8.126791)"
                 style="fill:#ff0000;stroke-width:3.16008"><path
                   id="path1138"
                   style="fill:#ff0000;stroke-width:3.16008;stroke-linecap:round;stroke-linejoin:round;stroke-miterlimit:12.5;stroke-dashoffset:0.19578;paint-order:stroke fill markers"
                   d="m 48.207514,-60.214788 h 19.999997 v 20 H 48.207514 Z m 19.999997,0 h 20 v 20 h -20 z m -59.9999977,0 H 28.207514 v 20 H 8.2075133 Z m 20.0000007,0 h 20 v 20 h -20 z m 39.890053,20 h 19.999997 v 20 H 68.097567 Z m -19.890053,0 h 20 v 20 h -20 z m -19.986034,0 h 20 v 20 h -20 z m -19.903603,0 h 20 v 20 h -20 z M 48.207514,-19.9981 h 19.999997 v 20 H 48.207514 Z m 19.999997,0 h 20 v 20 h -20 z m -59.9999977,0 H 28.207514 v 20 H 8.2075133 Z m 20.0000007,0 h 20 v 20 h -20 z m 39.890053,20 h 19.999997 v 20 H 68.097567 Z m -19.890053,0 h 20 v 20 h -20 z m -19.986034,0 h 20 v 20 h -20 z m -19.903603,0 h 20 v 20 h -20 z m -40.110358,-60.325033 h 19.999997 v 20 h -19.999997 z m 19.999997,0 H 8.2075158 v 20 H -11.792484 Z m -59.999998,0 h 20.000001 v 20 h -20.000001 z m 20.000001,0 h 20 v 20 h -20 z m 39.890053,20 H 8.0975688 v 20 H -11.902428 Z m -19.890053,0 h 20 v 20 h -20 z m -19.986034,0 h 20 v 20 h -20 z m -19.903603,0 h 20 v 20 h -20 z m 39.889637,20.216688 h 19.999997 v 20.00000033 h -19.999997 z m 19.999997,0 H 8.2075158 V -0.10644467 H -11.792484 Z m -59.999998,0 h 20.000001 v 20.00000033 h -20.000001 z m 20.000001,0 h 20 v 20.00000033 h -20 z m 39.890053,20.00000033 H 8.0975688 V 19.893555 H -11.902428 Z m -19.890053,0 h 20 V 19.893555 h -20 z m -19.986034,0 h 20 V 19.893555 h -20 z m -19.903603,0 h 20 V 19.893555 h -20 z M 48.207513,20.110244 H 68.20751 v 20 H 48.207513 Z m 19.999997,0 h 20 v 20 h -20 z m -59.9999979,0 H 28.207513 v 20 H 8.2075121 Z m 20.0000009,0 h 20 v 20 h -20 z m 39.890053,20 h 19.999997 v 20 H 68.097566 Z m -19.890053,0 h 20 v 20 h -20 z m -19.986034,0 h 20 v 20 h -20 z m -19.9036032,0 H 28.317876 v 20 H 8.3178758 Z M 48.207513,60.326932 H 68.20751 v 20 H 48.207513 Z m 19.999997,0 h 20 v 20 h -20 z m -59.9999979,0 H 28.207513 v 20 H 8.2075121 Z m 20.0000009,0 h 20 v 20 h -20 z m 39.890053,20 H 88.097563 V 100.32693 H 68.097566 Z m -19.890053,0 h 20 v 19.999998 h -20 z m -19.986034,0 h 20 v 19.999998 h -20 z m -19.9036032,0 H 28.317876 V 100.32693 H 8.3178758 Z M -31.792482,20.0019 h 19.999997 v 20 h -19.999997 z m 19.999997,0 H 8.2075145 v 20 H -11.792485 Z m -59.999998,0 h 20.000001 v 20 h -20.000001 z m 20.000001,0 h 20 v 20 h -20 z m 39.890053,20 H 8.0975675 v 20 H -11.902429 Z m -19.890053,0 h 20 v 20 h -20 z m -19.986034,0 h 20 v 20 h -20 z m -19.903603,0 h 20 v 20 h -20 z m 39.889637,20.216688 h 19.999997 v 20 h -19.999997 z m 19.999997,0 H 8.2075145 v 20 H -11.792485 Z m -59.999998,0 h 20.000001 v 20 h -20.000001 z m 20.000001,0 h 20 v 20 h -20 z m 39.890053,20 H 8.0975675 V 100.21859 H -11.902429 Z m -19.890053,0 h 20 v 20.000002 h -20 z m -19.986034,0 h 20 v 20.000002 h -20 z m -19.903603,0 h 20 v 20.000002 h -20 z M -111.46139,-60.323133 h 19.999994 v 20 h -19.999994 z m 19.999994,0 h 20 v 20 h -20 z m -59.999994,0 h 20 v 20 h -20 z m 20,0 h 20 v 20 h -20 z m 39.89005,20 h 19.999997 v 20 H -91.57134 Z m -19.89005,0 h 19.999997 v 20 h -19.999997 z m -19.98604,0 h 20 v 20 h -20 z m -19.9036,0 h 20 v 20 h -20 z m 39.88964,20.216688 h 19.999994 v 20.00000033 h -19.999994 z m 19.999994,0 h 20 v 20.00000033 h -20 z m -59.999994,0 h 20 v 20.00000033 h -20 z m 20,0 h 20 v 20.00000033 h -20 z m 39.89005,20.00000033 h 19.999997 V 19.893555 H -91.57134 Z m -19.89005,0 h 19.999997 V 19.893555 h -19.999997 z m -19.98604,0 h 20 V 19.893555 h -20 z m -19.9036,0 h 20 V 19.893555 h -20 z M -191.46139,-60.431477 h 20 v 20 h -20 z m 20,0 h 20 v 20 h -20 z m -60,0 h 20 v 20 h -20 z m 20,0 h 20 v 20 h -20 z m 39.89005,20 h 20 v 20 h -20 z m -19.89005,0 h 20 v 20 h -20 z m -19.98603,0 h 20 v 20 h -20 z m -19.90361,0 h 20 v 20 h -20 z m 39.88964,20.216688 h 20 v 19.99999966 h -20 z m 20,0 h 20 v 19.99999966 h -20 z m -60,0 h 20 v 19.99999966 h -20 z m 20,0 h 20 v 19.99999966 h -20 z m 39.89005,19.99999966 h 20 V 19.785211 h -20 z m -19.89005,0 h 20 V 19.785211 h -20 z m -19.98603,0 h 20 V 19.785211 h -20 z m -19.90361,0 h 20 V 19.785211 h -20 z M -111.46139,20.0019 h 19.999993 v 20 h -19.999993 z m 19.999993,0 h 20 v 20 h -20 z m -59.999993,0 h 20 v 20 h -20 z m 20,0 h 20 v 20 h -20 z m 39.890049,20 h 19.999997 v 20 h -19.999997 z m -19.890049,0 h 19.999996 v 20 h -19.999996 z m -19.98604,0 h 20 v 20 h -20 z m -19.9036,0 h 20 v 20 h -20 z m 39.88964,20.216688 h 19.999993 v 20 h -19.999993 z m 19.999993,0 h 20 v 20 h -20 z m -59.999993,0 h 20 v 20 h -20 z m 20,0 h 20 v 20 h -20 z m 39.890049,20 h 19.999997 v 20.000002 h -19.999997 z m -19.890049,0 h 19.999996 v 20.000002 h -19.999996 z m -19.98604,0 h 20 v 20.000002 h -20 z m -19.9036,0 h 20 v 20.000002 h -20 z m -40.11036,-60.325033 h 20 v 20 h -20 z m 20,0 h 20 v 20 h -20 z m -60,0 h 20 v 20 h -20 z m 20,0 h 20 v 20 h -20 z m 39.89005,20 h 20 v 20 h -20 z m -19.89005,0 h 20 v 20 h -20 z m -19.98603,0 h 20 v 20 h -20 z m -19.90361,0 h 20 v 20 h -20 z m 39.88964,20.216688 h 20 v 20 h -20 z m 20,0 h 20 v 20 h -20 z m -60,0 h 20 v 20 h -20 z m 20,0 h 20 v 20 h -20 z m 39.89005,20 h 20 v 19.999997 h -20 z m -19.89005,0 h 20 v 19.999997 h -20 z m -19.98603,0 h 20 v 19.999997 h -20 z m -19.90361,0 h 20 v 19.999997 h -20 z M 48.317874,-221.08154 h 19.999997 v 20 H 48.317874 Z m 19.999997,0 h 20 v 20 h -20 z m -59.9999977,0 H 28.317874 v 20 H 8.3178733 Z m 20.0000007,0 h 20 v 20 h -20 z m 39.890053,20 h 19.999997 v 20 H 68.207927 Z m -19.890053,0 h 20 v 20 h -20 z m -19.986034,0 h 20 v 20 h -20 z m -19.903603,0 h 20 v 20 h -20 z m 39.889637,20.21669 h 19.999997 v 20 H 48.317874 Z m 19.999997,0 h 20 v 20 h -20 z m -59.9999977,0 H 28.317874 v 20 H 8.3178733 Z m 20.0000007,0 h 20 v 20 h -20 z m 39.890053,20 h 19.999997 v 20 H 68.207927 Z m -19.890053,0 h 20 v 20 h -20 z m -19.986034,0 h 20 v 20 h -20 z m -19.903603,0 h 20 v 20 h -20 z m -40.110358,-60.32503 h 19.999997 v 20 h -19.999997 z m 19.999997,0 H 8.3178758 v 20 H -11.682124 Z m -59.999998,0 h 20.000001 v 20 h -20.000001 z m 20.000001,0 h 20 v 20 h -20 z m 39.890053,20 H 8.2079288 v 20 H -11.792068 Z m -19.890053,0 h 20 v 20 h -20 z m -19.986034,0 h 20 v 20 h -20 z m -19.903603,0 h 20 v 20 h -20 z m 39.889637,20.21668 h 19.999997 v 20 h -19.999997 z m 19.999997,0 H 8.3178758 v 20 H -11.682124 Z m -59.999998,0 h 20.000001 v 20 h -20.000001 z m 20.000001,0 h 20 v 20 h -20 z m 39.890053,20 H 8.2079288 v 20 H -11.792068 Z m -19.890053,0 h 20 v 20 h -20 z m -19.986034,0 h 20 v 20 h -20 z m -19.903603,0 h 20 v 20 h -20 z m 119.889631,20.21669 H 68.31787 v 20 H 48.317873 Z m 19.999997,0 h 20 v 20 h -20 z m -59.999998,0 h 20.000001 v 20 H 8.317872 Z m 20.000001,0 h 20 v 20 h -20 z m 39.890053,20 h 19.999997 v 20 H 68.207926 Z m -19.890053,0 h 20 v 20 h -20 z m -19.986034,0 h 20 v 20 h -20 z m -19.9036033,0 H 28.428236 v 20 H 8.4282357 Z m 39.8896373,20.21669 H 68.31787 v 20 H 48.317873 Z m 19.999997,0 h 20 v 20 h -20 z m -59.999998,0 h 20.000001 v 20 H 8.317872 Z m 20.000001,0 h 20 v 20 h -20 z m 39.890053,20 h 19.999997 v 20 H 68.207926 Z m -19.890053,0 h 20 v 20 h -20 z m -19.986034,0 h 20 v 20 h -20 z m -19.9036033,0 H 28.428236 v 20 H 8.4282357 Z m -40.1103577,-60.32503 h 19.999997 v 20 h -19.999997 z m 19.999997,0 H 8.3178745 v 20 H -11.682125 Z m -59.999998,0 h 20.000001 v 20 h -20.000001 z m 20.000001,0 h 20 v 20 h -20 z m 39.890053,20 H 8.2079275 v 20 H -11.792069 Z m -19.890053,0 h 20 v 20 h -20 z m -19.986034,0 h 20 v 20 h -20 z m -19.903603,0 h 20 v 20 h -20 z m 39.889637,20.21669 h 19.999997 v 19.999996 h -19.999997 z m 19.999997,0 H 8.3178745 v 19.999996 H -11.682125 Z m -59.999998,0 h 20.000001 v 19.999996 h -20.000001 z m 20.000001,0 h 20 v 19.999996 h -20 z m 39.890053,19.999996 H 8.2079275 v 20 H -11.792069 Z m -19.890053,0 h 20 v 20 h -20 z m -19.986034,0 h 20 v 20 h -20 z m -19.903603,0 h 20 v 20 h -20 z M -111.57175,-221.18988 h 19.999992 v 20 h -19.999992 z m 19.999992,0 h 20 v 20 h -20 z m -60.000002,0 h 20.00001 v 20 h -20.00001 z m 20.00001,0 h 20 v 20 h -20 z m 39.890048,20 h 19.999997 v 20 h -19.999997 z m -19.890048,0 h 19.999995 v 20 h -19.999995 z m -19.98604,0 h 20 v 20 h -20 z m -19.9036,0 h 20 v 20 h -20 z m 39.88964,20.21668 h 19.999992 v 20 h -19.999992 z m 19.999992,0 h 20 v 20 h -20 z m -60.000002,0 h 20.00001 v 20 h -20.00001 z m 20.00001,0 h 20 v 20 h -20 z m 39.890048,20 h 19.999997 v 20 h -19.999997 z m -19.890048,0 h 19.999995 v 20 h -19.999995 z m -19.98604,0 h 20 v 20 h -20 z m -19.9036,0 h 20 v 20 h -20 z m -40.11036,-60.32503 h 20 v 20 h -20 z m 20,0 h 20 v 20 h -20 z m -60,0 h 20 v 20 h -20 z m 20,0 h 20 v 20 h -20 z m 39.89005,20 h 20 v 20 h -20 z m -19.89005,0 h 20 v 20 h -20 z m -19.98603,0 h 20 v 20 h -20 z m -19.90361,0 h 20 v 20 h -20 z m 39.88964,20.21669 h 20 v 20 h -20 z m 20,0 h 20 v 20 h -20 z m -60,0 h 20 v 20 h -20 z m 20,0 h 20 v 20 h -20 z m 39.89005,20 h 20 v 20 h -20 z m -19.89005,0 h 20 v 20 h -20 z m -19.98603,0 h 20 v 20 h -20 z m -19.90361,0 h 20 v 20 h -20 z m 119.88963,20.21669 h 20.000001 v 20 h -20.000001 z m 20.000001,0 h 20 v 20 h -20 z m -60.000001,0 h 20 v 20 h -20 z m 20,0 h 20 v 20 h -20 z m 39.890057,20 h 19.999997 v 20 h -19.999997 z m -19.890057,0 h 20.000004 v 20 h -20.000004 z m -19.98603,0 h 20 v 20 h -20 z m -19.9036,0 h 20 v 20 h -20 z m 39.88963,20.21669 h 20.000001 v 19.999996 h -20.000001 z m 20.000001,0 h 20 v 19.999996 h -20 z m -60.000001,0 h 20 v 19.999996 h -20 z m 20,0 h 20 v 19.999996 h -20 z m 39.890057,19.999996 h 19.999997 v 20 h -19.999997 z m -19.890057,0 h 20.000004 v 20 h -20.000004 z m -19.98603,0 h 20 v 20 h -20 z m -19.9036,0 h 20 v 20 h -20 z m -40.11036,-60.325036 h 20 v 20 h -20 z m 20,0 h 20 v 20 h -20 z m -60,0 h 20 v 20 h -20 z m 20,0 h 20 v 20 h -20 z m 39.89005,20 h 20 v 20 h -20 z m -19.89005,0 h 20 v 20 h -20 z m -19.98604,0 h 20 v 20 h -20 z m -19.9036,0 h 20 v 20 h -20 z m 39.88964,20.21669 h 20 v 20.000001 h -20 z m 20,0 h 20 v 20.000001 h -20 z m -60,0 h 20 v 20.000001 h -20 z m 20,0 h 20 v 20.000001 h -20 z m 39.89005,20.000001 h 20 v 20 h -20 z m -19.89005,0 h 20 v 20 h -20 z m -19.98604,0 h 20 v 20 h -20 z m -19.9036,0 h 20 v 20 h -20 z m -41.98782,20.270832 h 20 v 20 h -20 z m 20,0 h 20 v 20 h -20 z m -60,0 h 20 v 20 h -20 z m 20,0 h 20 v 20 h -20 z m 39.89006,20 h 19.99999 v 20 h -19.99999 z m -19.89006,0 h 20 v 20 h -20 z m -19.98603,0 h 20 v 20 h -20 z m -19.9036,0 h 20 v 20 h -20 z m 39.88963,20.216688 h 20 v 20.00000021 h -20 z m 20,0 h 20 v 20.00000021 h -20 z m -60,0 h 20 v 20.00000021 h -20 z m 20,0 h 20 v 20.00000021 h -20 z m 39.89006,20.00000021 h 19.99999 V 19.731011 h -19.99999 z m -19.89006,0 h 20 V 19.731011 h -20 z m -19.98603,0 h 20 V 19.731011 h -20 z m -19.9036,0 h 20 V 19.731011 h -20 z M -353.4492,-60.594021 h 20 v 20 h -20 z m 20,0 h 20 v 20 h -20 z m -60,0 h 20 v 20 h -20 z m 20,0 h 20 v 20 h -20 z m 39.89005,20 h 20 v 20 h -20 z m -19.89005,0 h 20 v 20 h -20 z m -19.98603,0 h 20 v 20 h -20 z m -19.90361,0 h 20 v 20 h -20 z m 39.88964,20.216688 h 20 v 19.99999954 h -20 z m 20,0 h 20 v 19.99999954 h -20 z m -60,0 h 20 v 19.99999954 h -20 z m 20,0 h 20 v 19.99999954 h -20 z m 39.89005,19.99999954 h 20 V 19.622667 h -20 z m -19.89005,0 h 20 V 19.622667 h -20 z m -19.98603,0 h 20 V 19.622667 h -20 z m -19.90361,0 h 20 V 19.622667 h -20 z M -273.44921,19.839356 h 20 v 20 h -20 z m 20,0 h 20 v 20 h -20 z m -60,0 h 20 v 20 h -20 z m 20,0 h 20 v 20 h -20 z m 39.89006,20 h 19.99999 v 20 h -19.99999 z m -19.89006,0 h 20 v 20 h -20 z m -19.98603,0 h 20 v 20 h -20 z m -19.9036,0 h 20 v 20 h -20 z m 39.88963,20.216688 h 20 v 20 h -20 z m 20,0 h 20 v 20 h -20 z m -60,0 h 20 v 20 h -20 z m 20,0 h 20 v 20 h -20 z m 39.89006,20 h 19.99999 v 19.999996 h -19.99999 z m -19.89006,0 h 20 v 19.999996 h -20 z m -19.98603,0 h 20 v 19.999996 h -20 z m -19.9036,0 h 20 v 19.999996 h -20 z M -353.4492,19.731011 h 20 v 20 h -20 z m 20,0 h 20 v 20 h -20 z m -60,0 h 20 v 20 h -20 z m 20,0 h 20 v 20 h -20 z m 39.89005,20 h 20 v 20 h -20 z m -19.89005,0 h 20 v 20 h -20 z m -19.98604,0 h 20 v 20 h -20 z m -19.9036,0 h 20 v 20 h -20 z m 39.88964,20.216688 h 20 v 20 h -20 z m 20,0 h 20 v 20 h -20 z m -60,0 h 20 v 20 h -20 z m 20,0 h 20 v 20 h -20 z m 39.89005,20 h 20 v 20 h -20 z m -19.89005,0 h 20 v 20 h -20 z m -19.98604,0 h 20 v 20 h -20 z m -19.9036,0 h 20 v 20 h -20 z m -39.77927,-140.54172 h 20 v 20 h -20 z m 20,0 h 20 v 20 h -20 z m -60,0 h 20 v 20 h -20 z m 20,0 h 20 v 20 h -20 z m 39.89005,20 h 20 v 20 h -20 z m -19.89005,0 h 20 v 20 h -20 z m -19.98604,0 h 20 v 20 h -20 z m -19.9036,0 h 20 v 20 h -20 z m 39.88964,20.216688 h 20 v 19.99999954 h -20 z m 20,0 h 20 v 19.99999954 h -20 z m -60,0 h 20 v 19.99999954 h -20 z m 20,0 h 20 v 19.99999954 h -20 z m 39.89005,19.99999954 h 20 V 19.622667 h -20 z m -19.89005,0 h 20 V 19.622667 h -20 z m -19.98604,0 h 20 V 19.622667 h -20 z m -19.9036,0 h 20 V 19.622667 h -20 z M -513.11811,-60.702366 h 20 v 20 h -20 z m 20,0 h 20 v 20 h -20 z m -60,0 h 20 v 20 h -20 z m 20,0 h 20 v 20 h -20 z m 39.89006,20 h 19.99999 v 20 h -19.99999 z m -19.89006,0 h 20 v 20 h -20 z m -19.98603,0 h 20 v 20 h -20 z m -19.9036,0 h 20 v 20 h -20 z m 39.88963,20.216688 h 20 v 19.99999987 h -20 z m 20,0 h 20 v 19.99999987 h -20 z m -60,0 h 20 v 19.99999987 h -20 z m 20,0 h 20 v 19.99999987 h -20 z m 39.89006,19.99999987 h 19.99999 V 19.514322 h -19.99999 z m -19.89006,0 h 20 V 19.514322 h -20 z m -19.98603,0 h 20 V 19.514322 h -20 z m -19.9036,0 h 20 V 19.514322 h -20 z M -433.11811,19.731011 h 19.99999 v 20 h -19.99999 z m 19.99999,0 h 20 v 20 h -20 z m -59.99999,0 h 20 v 20 h -20 z m 20,0 h 20 v 20 h -20 z m 39.89005,20 h 20 v 20 h -20 z m -19.89005,0 h 20 v 20 h -20 z m -19.98604,0 h 20 v 20 h -20 z m -19.9036,0 h 20 v 20 h -20 z m 39.88964,20.216688 h 19.99999 v 20 h -19.99999 z m 19.99999,0 h 20 v 20 h -20 z m -59.99999,0 h 20 v 20 h -20 z m 20,0 h 20 v 20 h -20 z m 39.89005,20 h 20 v 20 h -20 z m -19.89005,0 h 20 v 20 h -20 z m -19.98604,0 h 20 v 20 h -20 z m -19.9036,0 h 20 v 20 h -20 z m -40.11036,-60.325033 h 20 v 20 h -20 z m 20,0 h 20 v 20 h -20 z m -60,0 h 20 v 20 h -20 z m 20,0 h 20 v 20 h -20 z m 39.89005,20 h 20 v 20 h -20 z m -19.89005,0 h 20 v 20 h -20 z m -19.98603,0 h 20 v 20 h -20 z m -19.90361,0 h 20 v 20 h -20 z m 39.88964,20.216688 h 20 v 20 h -20 z m 20,0 h 20 v 20 h -20 z m -60,0 h 20 v 20 h -20 z m 20,0 h 20 v 20 h -20 z m 39.89005,20 h 20 v 20 h -20 z m -19.89005,0 h 20 v 20 h -20 z m -19.98603,0 h 20 v 20 h -20 z m -19.90361,0 h 20 v 20 h -20 z m 279.6689,-301.191784 h 20 v 20 h -20 z m 20,0 h 20 v 20 h -20 z m -60,0 h 20 v 20 h -20 z m 20,0 h 20 v 20 h -20 z m 39.89006,20 h 19.99999 v 20 h -19.99999 z m -19.89006,0 h 20 v 20 h -20 z m -19.98603,0 h 20 v 20 h -20 z m -19.9036,0 h 20 v 20 h -20 z m 39.88963,20.21669 h 20 v 20 h -20 z m 20,0 h 20 v 20 h -20 z m -60,0 h 20 v 20 h -20 z m 20,0 h 20 v 20 h -20 z m 39.89006,20 h 19.99999 v 20 h -19.99999 z m -19.89006,0 h 20 v 20 h -20 z m -19.98603,0 h 20 v 20 h -20 z m -19.9036,0 h 20 v 20 h -20 z m -40.11036,-60.32503 h 20 v 20 h -20 z m 20,0 h 20 v 20 h -20 z m -60,0 h 20 v 20 h -20 z m 20,0 h 20 v 20 h -20 z m 39.89005,20 h 20 v 20 h -20 z m -19.89005,0 h 20 v 20 h -20 z m -19.98603,0 h 20 v 20 h -20 z m -19.90361,0 h 20 v 20 h -20 z m 39.88964,20.21668 h 20 v 20 h -20 z m 20,0 h 20 v 20 h -20 z m -60,0 h 20 v 20 h -20 z m 20,0 h 20 v 20 h -20 z m 39.89005,20 h 20 v 20 h -20 z m -19.89005,0 h 20 v 20 h -20 z m -19.98603,0 h 20 v 20 h -20 z m -19.90361,0 h 20 v 20 h -20 z m 119.88963,20.21669 h 20 v 20 h -20 z m 20,0 h 20 v 20 h -20 z m -60,0 h 20 v 20 h -20 z m 20,0 h 20 v 20 h -20 z m 39.89006,20 h 19.99999 v 20 h -19.99999 z m -19.89006,0 h 20 v 20 h -20 z m -19.98603,0 h 20 v 20 h -20 z m -19.9036,0 h 20 v 20 h -20 z m 39.88963,20.21669 h 20 v 20.000001 h -20 z m 20,0 h 20 v 20.000001 h -20 z m -60,0 h 20 v 20.000001 h -20 z m 20,0 h 20 v 20.000001 h -20 z m 39.89006,20.000001 h 19.99999 v 20 h -19.99999 z m -19.89006,0 h 20 v 20 h -20 z m -19.98603,0 h 20 v 20 h -20 z m -19.9036,0 h 20 v 20 h -20 z m -40.11036,-60.325031 h 20 v 20 h -20 z m 20,0 h 20 v 20 h -20 z m -60,0 h 20 v 20 h -20 z m 20,0 h 20 v 20 h -20 z m 39.89005,20 h 20 v 20 h -20 z m -19.89005,0 h 20 v 20 h -20 z m -19.98604,0 h 20 v 20 h -20 z m -19.9036,0 h 20 v 20 h -20 z m 39.88964,20.21669 h 20 v 19.999997 h -20 z m 20,0 h 20 v 19.999997 h -20 z m -60,0 h 20 v 19.999997 h -20 z m 20,0 h 20 v 19.999997 h -20 z m 39.89005,19.999997 h 20 v 20 h -20 z m -19.89005,0 h 20 v 20 h -20 z m -19.98604,0 h 20 v 20 h -20 z m -19.9036,0 h 20 v 20 h -20 z m -39.99999,-140.541717 h 19.99999 v 20 h -19.99999 z m 19.99999,0 h 20 v 20 h -20 z m -59.99999,0 h 20 v 20 h -20 z m 20,0 h 20 v 20 h -20 z m 39.89005,20 h 20 v 20 h -20 z m -19.89005,0 h 20 v 20 h -20 z m -19.98604,0 h 20 v 20 h -20 z m -19.9036,0 h 20 v 20 h -20 z m 39.88964,20.21668 h 19.99999 v 20 h -19.99999 z m 19.99999,0 h 20 v 20 h -20 z m -59.99999,0 h 20 v 20 h -20 z m 20,0 h 20 v 20 h -20 z m 39.89005,20 h 20 v 20 h -20 z m -19.89005,0 h 20 v 20 h -20 z m -19.98604,0 h 20 v 20 h -20 z m -19.9036,0 h 20 v 20 h -20 z m -40.11036,-60.32503 h 20 v 20 h -20 z m 20,0 h 20 v 20 h -20 z m -60,0 h 20 v 20 h -20 z m 20,0 h 20 v 20 h -20 z m 39.89005,20 h 20 v 20 h -20 z m -19.89005,0 h 20 v 20 h -20 z m -19.98603,0 h 20 v 20 h -20 z m -19.90361,0 h 20 v 20 h -20 z m 39.88964,20.21669 h 20 v 20 h -20 z m 20,0 h 20 v 20 h -20 z m -60,0 h 20 v 20 h -20 z m 20,0 h 20 v 20 h -20 z m 39.89005,20 h 20 v 20 h -20 z m -19.89005,0 h 20 v 20 h -20 z m -19.98603,0 h 20 v 20 h -20 z m -19.90361,0 h 20 v 20 h -20 z m 119.88963,20.21669 h 20 v 20 h -20 z m 20,0 h 20 v 20 h -20 z m -60,0 h 20 v 20 h -20 z m 20,0 h 20 v 20 h -20 z m 39.89006,20 h 19.99999 v 20 h -19.99999 z m -19.89006,0 h 20 v 20 h -20 z m -19.98603,0 h 20 v 20 h -20 z m -19.9036,0 h 20 v 20 h -20 z m 39.88963,20.21669 h 20 v 19.999997 h -20 z m 20,0 h 20 v 19.999997 h -20 z m -60,0 h 20 v 19.999997 h -20 z m 20,0 h 20 v 19.999997 h -20 z m 39.89006,19.999997 h 19.99999 v 20 h -19.99999 z m -19.89006,0 h 20 v 20 h -20 z m -19.98603,0 h 20 v 20 h -20 z m -19.9036,0 h 20 v 20 h -20 z m -40.11036,-60.325037 h 20 v 20 h -20 z m 20,0 h 20 v 20 h -20 z m -60,0 h 20 v 20 h -20 z m 20,0 h 20 v 20 h -20 z m 39.89005,20 h 20 v 20 h -20 z m -19.89005,0 h 20 v 20 h -20 z m -19.98603,0 h 20 v 20 h -20 z m -19.90361,0 h 20 v 20 h -20 z m 39.88964,20.21669 h 20 v 20.000002 h -20 z m 20,0 h 20 v 20.000002 h -20 z m -60,0 h 20 v 20.000002 h -20 z m 20,0 h 20 v 20.000002 h -20 z m 39.89005,20.000002 h 20 v 20 h -20 z m -19.89005,0 h 20 v 20 h -20 z m -19.98603,0 h 20 v 20 h -20 z m -19.90361,0 h 20 v 20 h -20 z M 48.207514,261.02543 h 19.999997 v 20 H 48.207514 Z m 19.999997,0 h 20 v 20 h -20 z m -59.9999977,0 H 28.207514 v 20 H 8.2075133 Z m 20.0000007,0 h 20 v 20 h -20 z m 39.890053,20 h 19.999997 v 20 H 68.097567 Z m -19.890053,0 h 20 v 20 h -20 z m -19.986034,0 h 20 v 20 h -20 z m -19.903603,0 h 20 v 20 h -20 z m 39.889637,20.21669 h 19.999997 v 20 H 48.207514 Z m 19.999997,0 h 20 v 20 h -20 z m -59.9999977,0 H 28.207514 v 20 H 8.2075133 Z m 20.0000007,0 h 20 v 20 h -20 z m 39.890053,20 h 19.999997 v 20 H 68.097567 Z m -19.890053,0 h 20 v 20 h -20 z m -19.986034,0 h 20 v 20 h -20 z m -19.903603,0 h 20 v 20 h -20 z m -40.110358,-60.32503 h 19.999997 v 20 h -19.999997 z m 19.999997,0 H 8.2075158 v 20 H -11.792484 Z m -59.999998,0 h 20.000001 v 20 h -20.000001 z m 20.000001,0 h 20 v 20 h -20 z m 39.890053,20 H 8.0975688 v 20 H -11.902428 Z m -19.890053,0 h 20 v 20 h -20 z m -19.986034,0 h 20 v 20 h -20 z m -19.903603,0 h 20 v 20 h -20 z m 39.889637,20.21669 h 19.999997 v 20 h -19.999997 z m 19.999997,0 H 8.2075158 v 20 H -11.792484 Z m -59.999998,0 h 20.000001 v 20 h -20.000001 z m 20.000001,0 h 20 v 20 h -20 z m 39.890053,20 H 8.0975688 v 20 H -11.902428 Z m -19.890053,0 h 20 v 20 h -20 z m -19.986034,0 h 20 v 20 h -20 z m -19.903603,0 h 20 v 20 h -20 z M 48.207513,341.35047 H 68.20751 v 20 H 48.207513 Z m 19.999997,0 h 20 v 20 h -20 z m -59.9999979,0 H 28.207513 v 20 H 8.2075121 Z m 20.0000009,0 h 20 v 20 h -20 z m 39.890053,20 h 19.999997 v 20 H 68.097566 Z m -19.890053,0 h 20 v 20 h -20 z m -19.986034,0 h 20 v 20 h -20 z m -19.9036033,0 H 28.317876 v 20 H 8.3178757 Z M 48.207513,381.56715 H 68.20751 v 20 H 48.207513 Z m 19.999997,0 h 20 v 20 h -20 z m -59.9999979,0 H 28.207513 v 20 H 8.2075121 Z m 20.0000009,0 h 20 v 20 h -20 z m 39.890053,20 h 19.999997 v 20 H 68.097566 Z m -19.890053,0 h 20 v 20 h -20 z m -19.986034,0 h 20 v 20 h -20 z m -19.9036033,0 H 28.317876 v 20 H 8.3178757 Z M -31.792482,341.24212 h 19.999997 v 20 h -19.999997 z m 19.999997,0 H 8.2075145 v 20 H -11.792485 Z m -59.999998,0 h 20.000001 v 20 h -20.000001 z m 20.000001,0 h 20 v 20 h -20 z m 39.890053,20 H 8.0975675 v 20 H -11.902429 Z m -19.890053,0 h 20 v 20 h -20 z m -19.986034,0 h 20 v 20 h -20 z m -19.903603,0 h 20 v 20 h -20 z m 39.889637,20.21669 h 19.999997 v 20 h -19.999997 z m 19.999997,0 H 8.2075145 v 20 H -11.792485 Z m -59.999998,0 h 20.000001 v 20 h -20.000001 z m 20.000001,0 h 20 v 20 h -20 z m 39.890053,20 H 8.0975675 v 20 H -11.902429 Z m -19.890053,0 h 20 v 20 h -20 z m -19.986034,0 h 20 v 20 h -20 z m -19.903603,0 h 20 v 20 h -20 z M -111.46139,260.91709 h 19.999994 v 20 h -19.999994 z m 19.999994,0 h 20 v 20 h -20 z m -59.999994,0 h 20 v 20 h -20 z m 20,0 h 20 v 20 h -20 z m 39.89005,20 h 19.999997 v 20 H -91.57134 Z m -19.89005,0 h 19.999997 v 20 h -19.999997 z m -19.98604,0 h 20 v 20 h -20 z m -19.9036,0 h 20 v 20 h -20 z m 39.88964,20.21669 h 19.999994 v 20 h -19.999994 z m 19.999994,0 h 20 v 20 h -20 z m -59.999994,0 h 20 v 20 h -20 z m 20,0 h 20 v 20 h -20 z m 39.89005,20 h 19.999997 v 20 H -91.57134 Z m -19.89005,0 h 19.999997 v 20 h -19.999997 z m -19.98604,0 h 20 v 20 h -20 z m -19.9036,0 h 20 v 20 h -20 z m -40.11036,-60.32504 h 20 v 20 h -20 z m 20,0 h 20 v 20 h -20 z m -60,0 h 20 v 20 h -20 z m 20,0 h 20 v 20 h -20 z m 39.89005,20 h 20 v 20 h -20 z m -19.89005,0 h 20 v 20 h -20 z m -19.98603,0 h 20 v 20 h -20 z m -19.90361,0 h 20 v 20 h -20 z m 39.88964,20.21669 h 20 v 20 h -20 z m 20,0 h 20 v 20 h -20 z m -60,0 h 20 v 20 h -20 z m 20,0 h 20 v 20 h -20 z m 39.89005,20 h 20 v 20 h -20 z m -19.89005,0 h 20 v 20 h -20 z m -19.98603,0 h 20 v 20 h -20 z m -19.90361,0 h 20 v 20 h -20 z m 119.88964,20.21669 h 19.999993 v 20 h -19.999993 z m 19.999993,0 h 20 v 20 h -20 z m -59.999993,0 h 20 v 20 h -20 z m 20,0 h 20 v 20 h -20 z m 39.890049,20 h 19.999997 v 20 h -19.999997 z m -19.890049,0 h 19.999996 v 20 h -19.999996 z m -19.98604,0 h 20 v 20 h -20 z m -19.9036,0 h 20 v 20 h -20 z m 39.88964,20.21669 h 19.999993 v 20 h -19.999993 z m 19.999993,0 h 20 v 20 h -20 z m -59.999993,0 h 20 v 20 h -20 z m 20,0 h 20 v 20 h -20 z m 39.890049,20 h 19.999997 v 20 h -19.999997 z m -19.890049,0 h 19.999996 v 20 h -19.999996 z m -19.98604,0 h 20 v 20 h -20 z m -19.9036,0 h 20 v 20 h -20 z m -40.11036,-60.32503 h 20 v 20 h -20 z m 20,0 h 20 v 20 h -20 z m -60,0 h 20 v 20 h -20 z m 20,0 h 20 v 20 h -20 z m 39.89005,20 h 20 v 20 h -20 z m -19.89005,0 h 20 v 20 h -20 z m -19.98603,0 h 20 v 20 h -20 z m -19.90361,0 h 20 v 20 h -20 z m 39.88964,20.21668 h 20 v 20 h -20 z m 20,0 h 20 v 20 h -20 z m -60,0 h 20 v 20 h -20 z m 20,0 h 20 v 20 h -20 z m 39.89005,20 h 20 v 20 h -20 z m -19.89005,0 h 20 v 20 h -20 z m -19.98603,0 h 20 v 20 h -20 z m -19.90361,0 h 20 v 20 h -20 z M 48.317874,100.15868 h 19.999997 v 20 H 48.317874 Z m 19.999997,0 h 20 v 20 h -20 z m -59.9999977,0 H 28.317874 v 20 H 8.3178733 Z m 20.0000007,0 h 20 v 20 h -20 z m 39.890053,20 h 19.999997 v 20 H 68.207927 Z m -19.890053,0 h 20 v 20 h -20 z m -19.986034,0 h 20 v 20 h -20 z m -19.903603,0 h 20 v 20 h -20 z m 39.889637,20.21669 h 19.999997 v 20 H 48.317874 Z m 19.999997,0 h 20 v 20 h -20 z m -59.9999977,0 H 28.317874 v 20 H 8.3178733 Z m 20.0000007,0 h 20 v 20 h -20 z m 39.890053,20 h 19.999997 v 20 H 68.207927 Z m -19.890053,0 h 20 v 20 h -20 z m -19.986034,0 h 20 v 20 h -20 z m -19.903603,0 h 20 v 20 h -20 z m -40.110358,-60.32503 h 19.999997 v 20 h -19.999997 z m 19.999997,0 H 8.3178758 v 20 H -11.682124 Z m -59.999998,0 h 20.000001 v 20 h -20.000001 z m 20.000001,0 h 20 v 20 h -20 z m 39.890053,20 H 8.2079288 v 20 H -11.792068 Z m -19.890053,0 h 20 v 20 h -20 z m -19.986034,0 h 20 v 20 h -20 z m -19.903603,0 h 20 v 20 h -20 z m 39.889637,20.21668 h 19.999997 v 20 h -19.999997 z m 19.999997,0 H 8.3178758 v 20 H -11.682124 Z m -59.999998,0 h 20.000001 v 20 h -20.000001 z m 20.000001,0 h 20 v 20 h -20 z m 39.890053,20 H 8.2079288 v 20 H -11.792068 Z m -19.890053,0 h 20 v 20 h -20 z m -19.986034,0 h 20 v 20 h -20 z m -19.903603,0 h 20 v 20 h -20 z M 48.317873,180.48371 H 68.31787 v 20 H 48.317873 Z m 19.999997,0 h 20 v 20 h -20 z m -59.999998,0 h 20.000001 v 20 H 8.317872 Z m 20.000001,0 h 20 v 20 h -20 z m 39.890053,20 h 19.999997 v 20 H 68.207926 Z m -19.890053,0 h 20 v 20 h -20 z m -19.986034,0 h 20 v 20 h -20 z m -19.9036033,0 H 28.428236 v 20 H 8.4282357 Z M 48.317873,220.7004 H 68.31787 v 20 H 48.317873 Z m 19.999997,0 h 20 v 20 h -20 z m -59.999998,0 h 20.000001 v 20 H 8.317872 Z m 20.000001,0 h 20 v 20 h -20 z m 39.890053,20 h 19.999997 v 20 H 68.207926 Z m -19.890053,0 h 20 v 20 h -20 z m -19.986034,0 h 20 v 20 h -20 z m -19.9036033,0 H 28.428236 v 20 H 8.4282357 Z M -31.682122,180.37537 h 19.999997 v 20 h -19.999997 z m 19.999997,0 H 8.3178745 v 20 H -11.682125 Z m -59.999998,0 h 20.000001 v 20 h -20.000001 z m 20.000001,0 h 20 v 20 h -20 z m 39.890053,20 H 8.2079275 v 20 H -11.792069 Z m -19.890053,0 h 20 v 20 h -20 z m -19.986034,0 h 20 v 20 h -20 z m -19.903603,0 h 20 v 20 h -20 z m 39.889637,20.21669 h 19.999997 v 20 h -19.999997 z m 19.999997,0 H 8.3178745 v 20 H -11.682125 Z m -59.999998,0 h 20.000001 v 20 h -20.000001 z m 20.000001,0 h 20 v 20 h -20 z m 39.890053,20 H 8.2079275 v 20 H -11.792069 Z m -19.890053,0 h 20 v 20 h -20 z m -19.986034,0 h 20 v 20 h -20 z m -19.903603,0 h 20 v 20 h -20 z M -111.57175,100.05034 h 19.999992 v 20 h -19.999992 z m 19.999992,0 h 20 v 20 h -20 z m -60.000002,0 h 20.00001 v 20 h -20.00001 z m 20.00001,0 h 20 v 20 h -20 z m 39.890048,20 h 19.999997 v 20 h -19.999997 z m -19.890048,0 h 19.999995 v 20 h -19.999995 z m -19.98604,0 h 20 v 20 h -20 z m -19.9036,0 h 20 v 20 h -20 z m 39.88964,20.21668 h 19.999992 v 20 h -19.999992 z m 19.999992,0 h 20 v 20 h -20 z m -60.000002,0 h 20.00001 v 20 h -20.00001 z m 20.00001,0 h 20 v 20 h -20 z m 39.890048,20 h 19.999997 v 20 h -19.999997 z m -19.890048,0 h 19.999995 v 20 h -19.999995 z m -19.98604,0 h 20 v 20 h -20 z m -19.9036,0 h 20 v 20 h -20 z m -40.11036,-60.325028 h 20 v 19.999998 h -20 z m 20,0 h 20 v 19.999998 h -20 z m -60,0 h 20 v 19.999998 h -20 z m 20,0 h 20 v 19.999998 h -20 z m 39.89005,19.999998 h 20 v 20 h -20 z m -19.89005,0 h 20 v 20 h -20 z m -19.98603,0 h 20 v 20 h -20 z m -19.90361,0 h 20 v 20 h -20 z m 39.88964,20.21669 h 20 v 20 h -20 z m 20,0 h 20 v 20 h -20 z m -60,0 h 20 v 20 h -20 z m 20,0 h 20 v 20 h -20 z m 39.89005,20 h 20 v 20 h -20 z m -19.89005,0 h 20 v 20 h -20 z m -19.98603,0 h 20 v 20 h -20 z m -19.90361,0 h 20 v 20 h -20 z m 119.88963,20.21669 h 20.000001 v 20 h -20.000001 z m 20.000001,0 h 20 v 20 h -20 z m -60.000001,0 h 20 v 20 h -20 z m 20,0 h 20 v 20 h -20 z m 39.890057,20 h 19.999997 v 20 h -19.999997 z m -19.890057,0 h 20.000004 v 20 h -20.000004 z m -19.98603,0 h 20 v 20 h -20 z m -19.9036,0 h 20 v 20 h -20 z m 39.88963,20.21669 h 20.000001 v 20 h -20.000001 z m 20.000001,0 h 20 v 20 h -20 z m -60.000001,0 h 20 v 20 h -20 z m 20,0 h 20 v 20 h -20 z m 39.890057,20 h 19.999997 v 20 h -19.999997 z m -19.890057,0 h 20.000004 v 20 h -20.000004 z m -19.98603,0 h 20 v 20 h -20 z m -19.9036,0 h 20 v 20 h -20 z m -40.11036,-60.32504 h 20 v 20 h -20 z m 20,0 h 20 v 20 h -20 z m -60,0 h 20 v 20 h -20 z m 20,0 h 20 v 20 h -20 z m 39.89005,20 h 20 v 20 h -20 z m -19.89005,0 h 20 v 20 h -20 z m -19.98604,0 h 20 v 20 h -20 z m -19.9036,0 h 20 v 20 h -20 z m 39.88964,20.21669 h 20 v 20 h -20 z m 20,0 h 20 v 20 h -20 z m -60,0 h 20 v 20 h -20 z m 20,0 h 20 v 20 h -20 z m 39.89005,20 h 20 v 20 h -20 z m -19.89005,0 h 20 v 20 h -20 z m -19.98604,0 h 20 v 20 h -20 z m -19.9036,0 h 20 v 20 h -20 z m -41.98782,20.27086 h 20 v 20 h -20 z m 20,0 h 20 v 20 h -20 z m -60,0 h 20 v 20 h -20 z m 20,0 h 20 v 20 h -20 z m 39.89006,20 h 19.99999 v 20 h -19.99999 z m -19.89006,0 h 20 v 20 h -20 z m -19.98603,0 h 20 v 20 h -20 z m -19.9036,0 h 20 v 20 h -20 z m 39.88963,20.21669 h 20 v 20 h -20 z m 20,0 h 20 v 20 h -20 z m -60,0 h 20 v 20 h -20 z m 20,0 h 20 v 20 h -20 z m 39.89006,20 h 19.99999 v 20 h -19.99999 z m -19.89006,0 h 20 v 20 h -20 z m -19.98603,0 h 20 v 20 h -20 z m -19.9036,0 h 20 v 20 h -20 z m -40.11036,-60.32503 h 20 v 20 h -20 z m 20,0 h 20 v 20 h -20 z m -60,0 h 20 v 20 h -20 z m 20,0 h 20 v 20 h -20 z m 39.89005,20 h 20 v 20 h -20 z m -19.89005,0 h 20 v 20 h -20 z m -19.98603,0 h 20 v 20 h -20 z m -19.90361,0 h 20 v 20 h -20 z m 39.88964,20.21669 h 20 v 20 h -20 z m 20,0 h 20 v 20 h -20 z m -60,0 h 20 v 20 h -20 z m 20,0 h 20 v 20 h -20 z m 39.89005,20 h 20 v 20 h -20 z m -19.89005,0 h 20 v 20 h -20 z m -19.98603,0 h 20 v 20 h -20 z m -19.90361,0 h 20 v 20 h -20 z m 119.88963,20.21669 h 20 v 20 h -20 z m 20,0 h 20 v 20 h -20 z m -60,0 h 20 v 20 h -20 z m 20,0 h 20 v 20 h -20 z m 39.89006,20 h 19.99999 v 20 h -19.99999 z m -19.89006,0 h 20 v 20 h -20 z m -19.98603,0 h 20 v 20 h -20 z m -19.9036,0 h 20 v 20 h -20 z m 39.88963,20.21668 h 20 v 20 h -20 z m 20,0 h 20 v 20 h -20 z m -60,0 h 20 v 20 h -20 z m 20,0 h 20 v 20 h -20 z m 39.89006,20 h 19.99999 v 20 h -19.99999 z m -19.89006,0 h 20 v 20 h -20 z m -19.98603,0 h 20 v 20 h -20 z m -19.9036,0 h 20 v 20 h -20 z m -40.11036,-60.32503 h 20 v 20 h -20 z m 20,0 h 20 v 20 h -20 z m -60,0 h 20 v 20 h -20 z m 20,0 h 20 v 20 h -20 z m 39.89005,20 h 20 v 20 h -20 z m -19.89005,0 h 20 v 20 h -20 z m -19.98604,0 h 20 v 20 h -20 z m -19.9036,0 h 20 v 20 h -20 z m 39.88964,20.21669 h 20 v 20 h -20 z m 20,0 h 20 v 20 h -20 z m -60,0 h 20 v 20 h -20 z m 20,0 h 20 v 20 h -20 z m 39.89005,20 h 20 v 20 h -20 z m -19.89005,0 h 20 v 20 h -20 z m -19.98604,0 h 20 v 20 h -20 z m -19.9036,0 h 20 v 20 h -20 z m -39.77927,-140.54172 h 20 v 20 h -20 z m 20,0 h 20 v 20 h -20 z m -60,0 h 20 v 20 h -20 z m 20,0 h 20 v 20 h -20 z m 39.89005,20 h 20 v 20 h -20 z m -19.89005,0 h 20 v 20 h -20 z m -19.98604,0 h 20 v 20 h -20 z m -19.9036,0 h 20 v 20 h -20 z m 39.88964,20.21669 h 20 v 20 h -20 z m 20,0 h 20 v 20 h -20 z m -60,0 h 20 v 20 h -20 z m 20,0 h 20 v 20 h -20 z m 39.89005,20 h 20 v 20 h -20 z m -19.89005,0 h 20 v 20 h -20 z m -19.98604,0 h 20 v 20 h -20 z m -19.9036,0 h 20 v 20 h -20 z m -40.11036,-60.32504 h 20 v 20 h -20 z m 20,0 h 20 v 20 h -20 z m -60,0 h 20 v 20 h -20 z m 20,0 h 20 v 20 h -20 z m 39.89006,20 h 19.99999 v 20 h -19.99999 z m -19.89006,0 h 20 v 20 h -20 z m -19.98603,0 h 20 v 20 h -20 z m -19.9036,0 h 20 v 20 h -20 z m 39.88963,20.21669 h 20 v 20 h -20 z m 20,0 h 20 v 20 h -20 z m -60,0 h 20 v 20 h -20 z m 20,0 h 20 v 20 h -20 z m 39.89006,20 h 19.99999 v 20 h -19.99999 z m -19.89006,0 h 20 v 20 h -20 z m -19.98603,0 h 20 v 20 h -20 z m -19.9036,0 h 20 v 20 h -20 z m 119.88963,20.21669 h 19.99999 v 20 h -19.99999 z m 19.99999,0 h 20 v 20 h -20 z m -59.99999,0 h 20 v 20 h -20 z m 20,0 h 20 v 20 h -20 z m 39.89005,20 h 20 v 20 h -20 z m -19.89005,0 h 20 v 20 h -20 z m -19.98604,0 h 20 v 20 h -20 z m -19.9036,0 h 20 v 20 h -20 z m 39.88964,20.21669 h 19.99999 v 20 h -19.99999 z m 19.99999,0 h 20 v 20 h -20 z m -59.99999,0 h 20 v 20 h -20 z m 20,0 h 20 v 20 h -20 z m 39.89005,20 h 20 v 20 h -20 z m -19.89005,0 h 20 v 20 h -20 z m -19.98604,0 h 20 v 20 h -20 z m -19.9036,0 h 20 v 20 h -20 z m -40.11036,-60.32503 h 20 v 20 h -20 z m 20,0 h 20 v 20 h -20 z m -60,0 h 20 v 20 h -20 z m 20,0 h 20 v 20 h -20 z m 39.89005,20 h 20 v 20 h -20 z m -19.89005,0 h 20 v 20 h -20 z m -19.98603,0 h 20 v 20 h -20 z m -19.90361,0 h 20 v 20 h -20 z m 39.88964,20.21668 h 20 v 20 h -20 z m 20,0 h 20 v 20 h -20 z m -60,0 h 20 v 20 h -20 z m 20,0 h 20 v 20 h -20 z m 39.89005,20 h 20 v 20 h -20 z m -19.89005,0 h 20 v 20 h -20 z m -19.98603,0 h 20 v 20 h -20 z m -19.90361,0 h 20 v 20 h -20 z m 279.6689,-301.19178 h 20 v 20 h -20 z m 20,0 h 20 v 20 h -20 z m -60,0 h 20 v 20 h -20 z m 20,0 h 20 v 20 h -20 z m 39.89006,20 h 19.99999 v 20 h -19.99999 z m -19.89006,0 h 20 v 20 h -20 z m -19.98603,0 h 20 v 20 h -20 z m -19.9036,0 h 20 v 20 h -20 z m 39.88963,20.21669 h 20 v 20 h -20 z m 20,0 h 20 v 20 h -20 z m -60,0 h 20 v 20 h -20 z m 20,0 h 20 v 20 h -20 z m 39.89006,20 h 19.99999 v 20 h -19.99999 z m -19.89006,0 h 20 v 20 h -20 z m -19.98603,0 h 20 v 20 h -20 z m -19.9036,0 h 20 v 20 h -20 z m -40.11036,-60.325034 h 20 v 20.000004 h -20 z m 20,0 h 20 v 20.000004 h -20 z m -60,0 h 20 v 20.000004 h -20 z m 20,0 h 20 v 20.000004 h -20 z m 39.89005,20.000004 h 20 v 20 h -20 z m -19.89005,0 h 20 v 20 h -20 z m -19.98603,0 h 20 v 20 h -20 z m -19.90361,0 h 20 v 20 h -20 z m 39.88964,20.21668 h 20 v 20 h -20 z m 20,0 h 20 v 20 h -20 z m -60,0 h 20 v 20 h -20 z m 20,0 h 20 v 20 h -20 z m 39.89005,20 h 20 v 20 h -20 z m -19.89005,0 h 20 v 20 h -20 z m -19.98603,0 h 20 v 20 h -20 z m -19.90361,0 h 20 v 20 h -20 z m 119.88963,20.21669 h 20 v 20 h -20 z m 20,0 h 20 v 20 h -20 z m -60,0 h 20 v 20 h -20 z m 20,0 h 20 v 20 h -20 z m 39.89006,20 h 19.99999 v 20 h -19.99999 z m -19.89006,0 h 20 v 20 h -20 z m -19.98603,0 h 20 v 20 h -20 z m -19.9036,0 h 20 v 20 h -20 z m 39.88963,20.21669 h 20 v 20 h -20 z m 20,0 h 20 v 20 h -20 z m -60,0 h 20 v 20 h -20 z m 20,0 h 20 v 20 h -20 z m 39.89006,20 h 19.99999 v 20 h -19.99999 z m -19.89006,0 h 20 v 20 h -20 z m -19.98603,0 h 20 v 20 h -20 z m -19.9036,0 h 20 v 20 h -20 z m -40.11036,-60.32503 h 20 v 20 h -20 z m 20,0 h 20 v 20 h -20 z m -60,0 h 20 v 20 h -20 z m 20,0 h 20 v 20 h -20 z m 39.89005,20 h 20 v 20 h -20 z m -19.89005,0 h 20 v 20 h -20 z m -19.98604,0 h 20 v 20 h -20 z m -19.9036,0 h 20 v 20 h -20 z m 39.88964,20.21669 h 20 v 20 h -20 z m 20,0 h 20 v 20 h -20 z m -60,0 h 20 v 20 h -20 z m 20,0 h 20 v 20 h -20 z m 39.89005,20 h 20 v 20 h -20 z m -19.89005,0 h 20 v 20 h -20 z m -19.98604,0 h 20 v 20 h -20 z m -19.9036,0 h 20 v 20 h -20 z M -433.22847,99.779476 h 19.99999 v 20.000004 h -19.99999 z m 19.99999,0 h 20 v 20.000004 h -20 z m -59.99999,0 h 20 v 20.000004 h -20 z m 20,0 h 20 v 20.000004 h -20 z m 39.89005,20.000004 h 20 v 20 h -20 z m -19.89005,0 h 20 v 20 h -20 z m -19.98604,0 h 20 v 20 h -20 z m -19.9036,0 h 20 v 20 h -20 z m 39.88964,20.21668 h 19.99999 v 20 h -19.99999 z m 19.99999,0 h 20 v 20 h -20 z m -59.99999,0 h 20 v 20 h -20 z m 20,0 h 20 v 20 h -20 z m 39.89005,20 h 20 v 20 h -20 z m -19.89005,0 h 20 v 20 h -20 z m -19.98604,0 h 20 v 20 h -20 z m -19.9036,0 h 20 v 20 h -20 z m -40.11036,-60.325029 h 20 v 19.999999 h -20 z m 20,0 h 20 v 19.999999 h -20 z m -60,0 h 20 v 19.999999 h -20 z m 20,0 h 20 v 19.999999 h -20 z m 39.89005,19.999999 h 20 v 20 h -20 z m -19.89005,0 h 20 v 20 h -20 z m -19.98603,0 h 20 v 20 h -20 z m -19.90361,0 h 20 v 20 h -20 z m 39.88964,20.21669 h 20 v 20 h -20 z m 20,0 h 20 v 20 h -20 z m -60,0 h 20 v 20 h -20 z m 20,0 h 20 v 20 h -20 z m 39.89005,20 h 20 v 20 h -20 z m -19.89005,0 h 20 v 20 h -20 z m -19.98603,0 h 20 v 20 h -20 z m -19.90361,0 h 20 v 20 h -20 z m 119.88963,20.21669 h 20 v 20 h -20 z m 20,0 h 20 v 20 h -20 z m -60,0 h 20 v 20 h -20 z m 20,0 h 20 v 20 h -20 z m 39.89006,20 h 19.99999 v 20 h -19.99999 z m -19.89006,0 h 20 v 20 h -20 z m -19.98603,0 h 20 v 20 h -20 z m -19.9036,0 h 20 v 20 h -20 z m 39.88963,20.21669 h 20 v 20 h -20 z m 20,0 h 20 v 20 h -20 z m -60,0 h 20 v 20 h -20 z m 20,0 h 20 v 20 h -20 z m 39.89006,20 h 19.99999 v 20 h -19.99999 z m -19.89006,0 h 20 v 20 h -20 z m -19.98603,0 h 20 v 20 h -20 z m -19.9036,0 h 20 v 20 h -20 z m -40.11036,-60.32504 h 20 v 20 h -20 z m 20,0 h 20 v 20 h -20 z m -60,0 h 20 v 20 h -20 z m 20,0 h 20 v 20 h -20 z m 39.89005,20 h 20 v 20 h -20 z m -19.89005,0 h 20 v 20 h -20 z m -19.98603,0 h 20 v 20 h -20 z m -19.90361,0 h 20 v 20 h -20 z m 39.88964,20.21669 h 20 v 20 h -20 z m 20,0 h 20 v 20 h -20 z m -60,0 h 20 v 20 h -20 z m 20,0 h 20 v 20 h -20 z m 39.89005,20 h 20 v 20 h -20 z m -19.89005,0 h 20 v 20 h -20 z m -19.98603,0 h 20 v 20 h -20 z m -19.90361,0 h 20 v 20 h -20 z M -446.12018,-156.8092 H -5.5634001 V 309.76677 H -446.12018 Z" /></g></g></g></g></g></g><path
       id="path2296"
       style="fill:#ffffff;stroke-width:1;stroke-linecap:round;stroke-linejoin:round;stroke-miterlimit:12.5;stroke-dashoffset:0.19578;paint-order:markers stroke fill"
       d="m 108.34487,89.40115 c -27.26749,3.768 -45.06781,1.31416 -39.97999,-16.1799 -14.18971,5.68955 -31.13321,8.31994 -37.49177,22.71076 0.20971,0.31121 0.42514,0.61849 0.65061,0.91881 1.93524,2.18317 4.30864,4.36121 6.99234,6.53707 0.62609,0.44298 1.25859,0.88147 1.91461,1.30379 8.35058,6.80687 18.19245,12.10881 27.50426,17.94516 8.47787,-5.02419 17.0162,-9.83486 25.19795,-15.90549 6.496014,-4.02393 11.89247,-8.761546 14.42237,-15.04249 0.30417,-0.75268 0.56489,-1.51594 0.78962,-2.28771 z" /><path
       id="path2295"
       style="fill:#0055d4;stroke-width:1;stroke-linecap:round;stroke-linejoin:round;stroke-miterlimit:12.5;stroke-dashoffset:0.19578;paint-order:markers stroke fill"
       d="m 69.13739,26.51731 c -13.47638,-0.0968 -27.31681,3.07997 -41.55353,9.82214 l 0.0992,51.82991 c 0.52021,2.96001 1.62549,5.516 3.15174,7.78092 6.35856,-14.39082 23.30206,-17.02121 37.49177,-22.71076 -5.08782,17.49406 12.7125,19.9479 39.97999,16.1799 0.14035,-0.482 0.28681,-0.9623 0.39894,-1.45108 L 108.50706,36.33945 C 95.72636,29.98463 82.61379,26.61406 69.13737,26.51731 Z" /><path
       id="text1"
       style="font-weight:600;font-size:14.8167px;line-height:0em;font-family:Raleway;-inkscape-font-specification:'Raleway Semi-Bold';letter-spacing:0px;word-spacing:0px;text-orientation:upright;fill:#ff0000;fill-opacity:1;stroke:#ffffff;stroke-width:1;stroke-linecap:round;stroke-linejoin:round;stroke-miterlimit:12.5;stroke-dasharray:none;stroke-dashoffset:0.19578;stroke-opacity:1;paint-order:stroke fill markers"
       d="m 60.496467,39.618871 c -1.366415,0 -2.566575,0.239868 -3.600297,0.719336 -1.021841,0.467773 -1.865727,1.139856 -2.531111,2.016931 -0.665385,0.865381 -1.12249,1.911955 -1.372011,3.13986 -0.2614,1.298071 -0.220033,2.455766 0.124541,3.473173 0.356457,1.017407 0.980064,1.818754 1.871204,2.403471 0.903022,0.584717 2.019931,0.876949 3.3507,0.876949 1.342652,0 2.52523,-0.228116 3.547071,-0.684196 1.02184,-0.467773 1.859522,-1.133981 2.513024,-1.999361 0.653503,-0.877075 1.104921,-1.924166 1.35444,-3.140377 0.201992,-0.982324 0.225776,-1.882524 0.07132,-2.701127 -0.142583,-0.830297 -0.445596,-1.549386 -0.908988,-2.157491 -0.463393,-0.6198 -1.06942,-1.099536 -1.817978,-1.438672 -0.748559,-0.339135 -1.615713,-0.508496 -2.601909,-0.508496 z m -17.555,0.175183 -0.534852,2.701644 h 5.835821 l -7.42177,7.402649 -0.410311,2.175061 h 10.35544 l 0.534335,-2.701644 h -5.896799 l 7.215581,-7.297229 0.445968,-2.280481 z m 26.127602,0 -2.424139,12.279354 h 3.119189 l 1.425753,-7.192326 h 0.03565 l 4.455542,7.192326 h 2.245857 l 2.424142,-12.279354 h -3.11919 l -1.372526,6.928777 h -0.03565 l -4.34857,-6.928777 z m 17.448549,0 -7.146851,12.279354 h 3.600297 l 1.110527,-2.140437 h 4.752163 l 0.339516,2.140437 h 3.279387 L 90.010946,39.794054 Z m -26.484689,2.701644 c 0.689148,0 1.253291,0.128748 1.692919,0.386023 0.451511,0.245581 0.754525,0.637183 0.90899,1.175122 0.166346,0.53794 0.160658,1.221773 -0.01757,2.052071 -0.154464,0.736743 -0.398013,1.351103 -0.730705,1.842265 -0.32081,0.479468 -0.742754,0.835815 -1.265556,1.069702 -0.510919,0.233887 -1.134528,0.350883 -1.871204,0.350883 -0.689149,0 -1.259495,-0.122872 -1.711005,-0.368453 -0.439629,-0.257275 -0.736954,-0.654753 -0.891419,-1.192691 -0.154464,-0.537941 -0.14826,-1.221774 0.01809,-2.052073 0.154465,-0.736742 0.391808,-1.345226 0.712618,-1.824694 0.332693,-0.491162 0.754637,-0.853386 1.265557,-1.087272 0.522801,-0.233887 1.152614,-0.350883 1.88929,-0.350883 z m 27.660844,0.473356 h 0.03565 l 0.717786,4.525822 h -3.101102 z" /><path
       style="font-style:italic;font-weight:bold;font-size:17.6816px;line-height:0em;font-family:REM;-inkscape-font-specification:'REM Bold Italic';letter-spacing:0px;word-spacing:0px;text-orientation:upright;fill:#ff0000;stroke:#ffffff;stroke-linecap:round;stroke-linejoin:round;stroke-miterlimit:12.5;stroke-dashoffset:0.19578;paint-order:stroke fill markers"
       d="m 45.941099,69.907188 2.404697,-12.37712 h 5.658113 q 1.538299,0 2.493105,0.565811 0.972488,0.565811 1.32612,1.591344 0.371314,1.025533 0.10609,2.42238 -0.229861,1.255393 -0.937125,2.192518 -0.689582,0.919443 -1.856568,1.43221 -1.149304,0.495084 -2.829056,0.495084 h -2.546151 l -0.707264,3.677773 z m 4.349673,-6.330013 h 2.280927 q 0.99017,0 1.502936,-0.406676 0.530448,-0.406677 0.707264,-1.290757 0.194498,-0.937125 -0.229861,-1.32612 -0.406677,-0.406677 -1.255393,-0.406677 h -2.333972 z m 7.921362,6.330013 2.404698,-12.37712 h 3.129643 l -2.404698,12.37712 z m 8.823127,0 1.87425,-9.654153 h -3.97836 l 0.530448,-2.722967 h 11.051 l -0.530448,2.722967 h -3.960679 l -1.874249,9.654153 z m 13.087489,0.176816 v 0 q -1.007851,0 -1.927294,-0.176816 -0.901762,-0.159134 -1.891931,-0.495084 l -0.88408,-0.300588 0.813353,-2.263244 1.078578,0.159134 q 0.760309,0.123771 1.555981,0.212179 0.813353,0.07073 1.485254,0.07073 1.060896,0 1.520618,-0.229861 0.459721,-0.247543 0.548129,-0.671901 0.05304,-0.282906 -0.05304,-0.495085 -0.10609,-0.229861 -0.54813,-0.44204 -0.44204,-0.229861 -1.396846,-0.54813 -1.343802,-0.44204 -2.104111,-0.954806 -0.760309,-0.530448 -1.007851,-1.273075 -0.229861,-0.760309 -0.01768,-1.891931 0.247543,-1.220031 1.025533,-1.962658 0.795672,-0.760309 1.980339,-1.113941 1.184668,-0.353632 2.634559,-0.353632 0.530448,0 1.113941,0.08841 0.583492,0.07073 1.149304,0.194498 0.565811,0.106089 1.007851,0.22986 l 0.760309,0.21218 -0.777991,2.333971 -0.831035,-0.10609 q -0.742627,-0.106089 -1.396846,-0.141452 -0.636538,-0.05305 -1.202349,-0.05305 -1.131623,0 -1.697434,0.229861 -0.548129,0.212179 -0.636537,0.6719 -0.05304,0.300588 0.07073,0.512767 0.141453,0.194497 0.636538,0.388995 0.512766,0.194498 1.538299,0.512766 1.308438,0.406677 2.033384,0.954807 0.742627,0.530448 0.954806,1.255393 0.229861,0.707264 0.03536,1.679752 -0.247543,1.414529 -1.025533,2.227882 -0.760309,0.813354 -1.927295,1.184667 -1.149304,0.353632 -2.616877,0.353632 z"
       id="text2"
       transform="scale(1.0079864,0.99207688)"
       aria-label="PITS" /><path
       style="fill:#000000;stroke-width:0.999997"
       d="m 65.365987,104.41516 c -0.655223,-0.011 -5.301351,-0.061 -10.324728,-0.11113 -5.023378,-0.0501 -10.227935,-0.11734 -11.565683,-0.14934 l -2.432268,-0.0582 2.233714,-0.2447 c 1.228544,-0.13458 2.601531,-0.27015 3.051082,-0.30125 l 0.817366,-0.0566 -0.342892,-0.33118 c -0.420222,-0.40585 -0.849106,-1.13364 -1.142585,-1.93886 -0.308188,-0.84558 -0.388938,-2.544091 -0.158556,-3.335083 0.441072,-1.51438 1.661959,-2.25053 2.87949,-1.73624 0.506213,0.21382 0.838437,0.52385 1.260301,1.17611 0.250025,0.38656 0.46491,0.54625 1.652401,1.227962 1.615266,0.927294 2.724347,1.454011 3.950495,1.876141 1.191792,0.4103 1.793416,0.53421 3.586479,0.73869 1.67635,0.19116 2.213749,0.36468 2.470333,0.79763 0.08705,0.1469 0.139556,0.28342 0.116673,0.30338 -0.05879,0.0513 -3.337242,-0.12663 -4.291547,-0.23291 -1.378175,-0.15349 -2.447967,-0.41615 -3.479194,-0.85423 -0.982564,-0.41741 -2.448245,-1.331357 -3.117333,-1.943844 -0.188168,-0.17225 -0.371809,-0.313187 -0.408091,-0.313187 -0.03629,0 -0.04376,0.370497 -0.01661,0.823324 0.05557,0.927117 -0.101612,1.979967 -0.378231,2.533407 -0.205797,0.41176 -0.126274,0.49741 0.120641,0.12995 0.244284,-0.36355 0.478396,-1.13369 0.478396,-1.57376 v -0.39453 l 0.219354,0.26942 c 0.674886,0.82891 2.510593,1.32321 6.233602,1.67854 4.768515,0.45509 4.778341,0.41854 -0.09927,0.36925 l -4.417794,-0.0447 -0.392434,0.35679 -0.392434,0.35678 h 5.57962 c 3.068786,0 5.579614,-0.0178 5.579614,-0.0395 0,-0.0217 -0.176453,-0.25926 -0.392122,-0.5279 -0.215663,-0.26864 -0.482217,-0.72841 -0.592336,-1.02169 -0.295888,-0.78804 -0.618305,-2.545174 -0.550859,-3.002091 0.156843,-1.062542 0.408913,-1.661452 0.953439,-2.265352 l 0.285189,-0.31629 -0.571409,-0.0517 c -0.314272,-0.0285 -1.307972,-0.0935 -2.208223,-0.14465 -0.900251,-0.0511 -1.65149,-0.10569 -1.669424,-0.12134 -0.0831,-0.0725 2.331074,-0.16492 4.348639,-0.16645 2.47456,-0.002 3.363417,0.11023 5.131434,0.64722 1.974764,0.59979 5.205412,2.171242 6.037149,2.936589 0.272636,0.250877 0.176075,0.222117 -1.141679,-0.34003 -1.603488,-0.684029 -3.904592,-1.493369 -5.406607,-1.901599 -0.543847,-0.14782 -1.023128,-0.26875 -1.065055,-0.26875 -0.04193,0 0.102142,0.24082 0.320165,0.53516 1.021662,1.379282 1.157255,3.404323 0.328597,4.907363 -0.316059,0.57329 -0.329322,0.63654 -0.144678,0.69025 0.07727,0.0225 0.110064,6.2e-4 0.07458,-0.0493 -0.144484,-0.20399 1.174082,-0.40476 3.410114,-0.51925 0.993059,-0.0509 1.245706,-0.0898 1.268738,-0.19554 0.01762,-0.0808 -0.607575,-0.5963 -1.612242,-1.32928 -0.902554,-0.65848 -1.666497,-1.233237 -1.697659,-1.277227 -0.03115,-0.044 0.181033,0.0147 0.471538,0.13031 0.29051,0.11567 1.399352,0.559787 2.46409,0.986917 3.0843,1.23732 5.039132,1.80218 6.946731,2.0073 1.079732,0.11611 4.149963,0.11655 5.477098,6.2e-4 1.372015,-0.11967 2.060856,-0.27653 3.025398,-0.68894 1.00964,-0.4317 1.729781,-1.01088 2.074613,-1.66855 0.143642,-0.27395 0.269056,-0.497997 0.278704,-0.497867 0.0097,1.3e-4 0.03289,0.411617 0.05168,0.914407 0.01874,0.50278 0.06689,1.1248 0.106933,1.38225 0.08513,0.54742 0.06539,0.56175 -0.773458,0.56175 -0.548795,0 -0.578042,0.0121 -0.935008,0.38466 -0.202667,0.21156 -0.368487,0.40647 -0.368487,0.43313 0,0.0267 0.480246,0.0483 1.06722,0.0481 0.893765,-3.3e-4 4.02163,0.22741 6.924516,0.50422 2.05308,0.19577 -21.208684,0.43902 -29.187219,0.30521 z m -0.342079,-1.14333 c 0.569468,-0.31955 0.814782,-0.55995 1.127037,-1.10442 0.804845,-1.40341 0.679384,-3.303571 -0.30344,-4.595583 -0.407274,-0.53539 -0.878363,-0.81572 -1.468335,-0.87374 -0.564964,-0.0556 -0.969511,0.12156 -1.707128,0.74747 -0.495919,0.42081 -0.631558,0.60304 -0.820104,1.101772 -0.427288,1.130304 -0.374084,2.493021 0.135547,3.471401 0.275424,0.52875 0.972411,1.21931 1.392983,1.38012 0.519743,0.19873 1.149712,0.15005 1.64344,-0.12702 z m -1.453857,-0.12356 c -0.206007,-0.10444 -0.20427,-0.11289 0.238644,-1.16324 0.245386,-0.58193 0.477156,-1.04132 0.51505,-1.02089 0.03789,0.0204 0.09758,0.38976 0.132636,0.82071 0.03504,0.43096 0.09224,0.93908 0.127074,1.12917 l 0.06334,0.34561 -0.434611,-0.003 c -0.239043,-0.002 -0.527995,-0.0504 -0.642134,-0.10828 z m 1.211653,-0.25049 c -0.119808,-0.5227 -0.188597,-1.95154 -0.09635,-2.00129 0.05056,-0.0273 0.321707,0.30815 0.602601,0.74532 l 0.510719,0.79488 -0.315616,0.28864 c -0.500959,0.45814 -0.628671,0.48954 -0.701354,0.17245 z m -2.048737,-0.43418 c -0.279837,-0.33708 -0.467734,-0.73123 -0.38201,-0.80135 0.02022,-0.0165 0.366842,-0.24755 0.770296,-0.51338 0.692932,-0.45657 0.90451,-0.52436 0.90451,-0.28979 0,0.16917 -0.838483,1.96628 -0.917686,1.96687 -0.0406,3.1e-4 -0.209407,-0.16275 -0.37511,-0.36235 z m 2.650706,-1.02404 c -0.327112,-0.47627 -0.457281,-0.74849 -0.414357,-0.8665 0.07475,-0.2055 0.03759,-0.20512 0.843416,-0.009 0.366337,0.0893 0.655427,0.20969 0.668731,0.27849 0.0332,0.17165 -0.403975,1.22806 -0.522465,1.26252 -0.05412,0.0157 -0.313005,-0.28388 -0.575325,-0.66582 z m -3.276166,-0.20677 c -0.02926,-0.0666 -0.08515,-0.40355 -0.124133,-0.74878 l -0.07089,-0.627717 0.287247,0.0525 c 0.157986,0.0288 0.563223,0.0965 0.900532,0.150217 0.340853,0.0543 0.636542,0.15061 0.665636,0.21677 0.03325,0.0756 -0.222078,0.29392 -0.700184,0.59858 -0.812112,0.5175 -0.877505,0.54197 -0.958209,0.35846 z m 1.973518,-0.59119 c -0.279469,-0.34816 -0.142651,-1.199074 0.211884,-1.317784 0.242725,-0.0813 0.626339,0.339937 0.626339,0.687724 0,0.67494 -0.500317,1.05101 -0.838223,0.63006 z m 1.682073,-0.3218 c -0.616701,-0.12261 -0.697916,-0.16238 -0.721403,-0.353337 -0.0212,-0.17224 0.101157,-0.3059 0.613193,-0.669947 0.351809,-0.25013 0.660427,-0.454777 0.685819,-0.454777 0.138453,0 0.333418,1.516281 0.202733,1.576721 -0.04698,0.0217 -0.398132,-0.0227 -0.780342,-0.0987 z M 62.85926,99.776553 c -0.785402,-0.16181 -0.819026,-0.17872 -0.819026,-0.411897 0,-0.28434 0.296551,-1.129309 0.39635,-1.129309 0.03759,0 0.370897,0.315372 0.740666,0.700822 0.524753,0.547014 0.653512,0.734644 0.586679,0.854964 -0.0818,0.14724 -0.122357,0.1466 -0.904669,-0.0145 z m 1.998378,-0.367737 c -0.05916,-0.13454 0.394185,-1.635189 0.568218,-1.880909 0.06362,-0.0898 0.114792,-0.0772 0.23628,0.0582 0.272967,0.30423 0.563054,0.835922 0.515304,0.944492 -0.02543,0.0579 -0.318715,0.31113 -0.651735,0.562857 -0.493779,0.37327 -0.617023,0.431447 -0.668067,0.31538 z m -1.658229,-0.789197 -0.677438,-0.733022 0.295479,-0.32372 c 0.162511,-0.17805 0.42432,-0.38923 0.581801,-0.4693 l 0.286328,-0.14557 0.185129,0.88189 c 0.214305,1.020862 0.24534,1.461729 0.105417,1.497419 -0.0546,0.0139 -0.404123,-0.30454 -0.776716,-0.707697 z m 1.175358,0.484157 c -0.06433,-0.0908 -0.444308,-1.841709 -0.446964,-2.059529 -0.0021,-0.15305 0.638258,-0.13771 0.996373,0.0239 0.161091,0.0727 0.291766,0.16041 0.290387,0.19492 -0.0015,0.0345 -0.128234,0.46996 -0.281889,0.96767 -0.265257,0.859189 -0.408719,1.083699 -0.557907,0.873059 z m 17.132526,4.257014 c -0.05354,-0.0873 -0.155632,-0.20077 -0.226863,-0.25217 -0.08963,-0.0647 -2.009185,-0.0927 -6.232528,-0.0911 -5.527795,0.002 -6.114642,0.0158 -6.226426,0.14389 -0.06788,0.0778 -0.124838,0.1704 -0.126574,0.20572 -0.0021,0.0353 2.442763,0.0746 5.432219,0.0874 2.989455,0.0127 5.894856,0.0325 6.456449,0.044 0.962862,0.0197 1.015524,0.0119 0.923723,-0.13781 z m -33.179609,-0.13887 c 0.757663,-0.34187 1.385485,-1.35793 1.445134,-2.33877 0.01757,-0.289 0.01258,-0.40086 -0.01112,-0.24855 -0.03347,0.2152 -0.08052,0.26544 -0.21113,0.22546 -0.136952,-0.0419 -0.145088,-0.0298 -0.04396,0.0653 0.06825,0.0642 0.124095,0.18541 0.124095,0.26938 0,0.25974 -0.413561,1.13244 -0.500032,1.05516 -0.04496,-0.0402 -0.171771,-0.26796 -0.281818,-0.50618 -0.260743,-0.56443 -0.267734,-0.38778 -0.01047,0.26467 l 0.200438,0.50834 -0.296533,0.25875 c -0.163092,0.14231 -0.317031,0.24085 -0.342084,0.219 -0.02505,-0.0219 -0.08946,-0.46815 -0.143114,-0.99175 l -0.09756,-0.95201 0.01472,0.99519 c 0.01329,0.89885 -0.0028,0.99814 -0.165749,1.02552 -0.09926,0.0167 -0.306517,-0.0152 -0.460578,-0.0709 l -0.280112,-0.10124 0.351552,-0.92428 c 0.193353,-0.50836 0.364711,-0.93799 0.380795,-0.95474 0.01609,-0.0168 0.143795,-0.0363 0.283802,-0.0433 0.140007,-0.007 0.239271,-0.0519 0.220589,-0.0995 -0.01868,-0.0476 -0.127515,-0.0748 -0.241849,-0.0604 -0.266918,0.0336 -0.41896,-0.21166 -0.41896,-0.67586 0,-0.442687 0.144709,-0.693014 0.400597,-0.693014 0.107284,0 0.19548,-0.0293 0.195994,-0.065 5.11e-4,-0.0357 0.09039,-0.451067 0.199717,-0.922987 0.109329,-0.471912 0.179824,-0.874562 0.156652,-0.894782 -0.02317,-0.0202 -0.09488,0.19047 -0.159362,0.46821 -0.06448,0.27772 -0.161432,0.690132 -0.215452,0.916439 -0.170198,0.713017 -0.330805,0.50753 -0.527038,-0.674299 -0.09915,-0.59717 -0.223207,-1.10892 -0.275671,-1.13721 -0.110345,-0.0595 -0.03757,0.54405 0.186998,1.550912 0.08227,0.368847 0.12066,0.711457 0.08532,0.761357 -0.05799,0.0819 -1.239066,-1.243419 -1.239066,-1.390359 0,-0.0339 0.08935,-0.16069 0.198553,-0.28183 0.314748,-0.34915 0.231085,-0.38436 -0.149155,-0.0628 -0.496614,0.42001 -0.759252,1.088102 -0.817205,2.078806 -0.09379,1.603307 0.428454,2.855987 1.413103,3.389597 0.357564,0.19378 0.659609,0.20484 1.029972,0.0377 z m -1.448553,-0.8019 c -0.210659,-0.26678 -0.474393,-0.79857 -0.413811,-0.83442 0.021,-0.0124 0.312294,-0.22557 0.647319,-0.47366 0.335027,-0.24809 0.636578,-0.45107 0.670115,-0.45107 0.137877,0 0.04148,0.37622 -0.291446,1.13746 -0.193832,0.4432 -0.367655,0.81912 -0.386274,0.83536 -0.01862,0.0162 -0.120275,-0.0799 -0.225903,-0.21367 z m -0.566471,-1.22851 c -0.0295,-0.0416 -0.08276,-0.34908 -0.118342,-0.68316 l -0.0647,-0.607437 0.75778,0.138167 c 0.944369,0.17219 0.970221,0.28706 0.186941,0.83069 -0.596176,0.41378 -0.67339,0.44639 -0.76168,0.32174 z m 0.570101,-1.383627 c -0.337427,-0.0788 -0.636467,-0.16376 -0.664534,-0.18888 -0.06135,-0.0549 0.09732,-0.724904 0.25142,-1.061694 l 0.11032,-0.241102 0.252071,0.327732 c 0.138638,0.18025 0.40141,0.488477 0.583935,0.684957 0.208558,0.224497 0.308847,0.409567 0.269914,0.498097 -0.07181,0.16327 -0.01617,0.1646 -0.803126,-0.0191 z m 30.682561,2.243417 c -1.004865,-0.20933 -2.466597,-1.27135 -3.329762,-2.419247 -0.435453,-0.579087 -0.847154,-1.452346 -0.732066,-1.552766 0.02523,-0.022 0.415955,0.0394 0.868333,0.13655 1.719706,0.369092 2.139548,0.393742 5.637408,0.330992 3.843168,-0.069 5.611553,-0.169122 6.094628,-0.345242 0.188173,-0.0686 0.368119,-0.10207 0.399874,-0.0744 0.111253,0.0971 0.05626,0.774062 -0.100744,1.240189 -0.404307,1.200344 -1.341557,2.324144 -2.082427,2.496934 -0.802362,0.18713 -6.056362,0.33253 -6.755244,0.18695 z m 9.49602,-2.863064 c -3.73e-4,-0.0238 0.08784,-0.290417 0.196344,-0.592447 0.117489,-0.327042 0.197269,-0.792412 0.197269,-1.150662 0,-0.7652 -0.284331,-1.28281 -1.129617,-2.0564 -0.690383,-0.631825 -0.458776,-0.583257 0.369861,0.0776 1.062001,0.84693 1.399346,1.85987 0.957172,2.87409 -0.168257,0.385922 -0.588032,0.988099 -0.591029,0.847849 z m -4.870248,-1.921689 c -1.40812,-1.52918 -3.528763,-2.968586 -5.080151,-3.448199 l -0.526734,-0.162839 0.369095,-0.135594 c 0.43766,-0.160783 1.180409,-0.178209 1.348379,-0.03163 0.182689,0.159407 0.141732,0.329177 -0.07942,0.329177 -0.34287,0 -0.21719,0.126801 0.277687,0.280169 1.439134,0.446005 3.378457,2.036306 4.184583,3.431466 0.119665,0.20711 0.202283,0.38989 0.183608,0.40619 -0.01869,0.0163 -0.323347,-0.28462 -0.677045,-0.66873 z m -11.508906,-0.64935 c -0.85316,-1.43959 -2.624569,-2.301053 -5.199999,-2.528832 -1.185291,-0.104838 -1.236447,-0.217391 -0.06656,-0.146463 2.637433,0.159889 4.046672,0.568228 5.310139,1.538655 1.131225,0.86885 1.403968,1.71605 0.55212,1.71497 -0.211705,-2.7e-4 -0.309237,-0.095 -0.595702,-0.57833 z m 15.233987,0.12155 c -0.733368,-0.34378 -2.266577,-1.62562 -2.216386,-1.853026 0.05767,-0.261293 0.368614,-0.23313 0.908887,0.08231 0.738776,0.431346 1.338135,0.915706 1.884923,1.523276 0.44266,0.49185 0.461086,0.53111 0.248195,0.52898 -0.126482,-10e-4 -0.498008,-0.12796 -0.825619,-0.28154 z m -26.81981,-1.879778 -0.168765,-0.529665 -1.297873,0.05847 c -1.316293,0.05927 -4.25839,-0.08709 -4.70306,-0.234021 -0.207179,-0.06845 -0.225581,-0.12166 -0.198552,-0.574036 l 0.02979,-0.498593 0.546019,-0.320994 c 1.138607,-0.669355 3.514569,-1.386177 4.624792,-1.395291 1.015511,-0.0084 1.464327,0.340501 2.473459,1.922488 0.435181,0.682222 0.533105,0.781721 0.794209,0.807056 0.163809,0.0159 -0.113357,0.06032 -0.615921,0.09873 l -0.913751,0.06985 -0.02938,0.534348 c -0.02334,0.424876 -0.06449,0.540176 -0.20079,0.562826 -0.133856,0.0222 -0.208396,-0.0876 -0.340184,-0.501167 z m -2.31777,-1.205502 c 0,-0.09019 0.07066,-0.187645 0.157033,-0.216562 0.265815,-0.08901 0.958732,-0.05655 1.505844,0.07054 0.728387,0.169196 0.65295,0.01575 -0.09928,-0.201937 -1.012299,-0.292955 -1.466147,-0.317482 -1.786973,-0.09659 -0.314304,0.216407 -0.347538,0.388788 -0.09928,0.514963 0.253209,0.128689 0.32265,0.11353 0.32265,-0.07042 z M 46.652416,94.21221 c 0,-0.0211 0.313611,-0.252478 0.696914,-0.514173 0.912343,-0.622896 1.58525,-0.841791 2.764756,-0.899369 0.919958,-0.04491 0.939492,-0.05055 1.786972,-0.516221 1.601661,-0.880063 3.435748,-1.552502 5.225004,-1.91566 1.893118,-0.384244 3.1949,-0.482235 6.452952,-0.485764 2.771667,-0.0031 3.200915,0.0161 4.31852,0.19214 0.682525,0.107515 1.374977,0.233766 1.538785,0.280571 0.337886,0.09654 0.391452,0.100268 -1.489146,-0.103788 -1.59327,-0.17287 -7.548155,-0.146759 -9.0535,0.0397 -2.227365,0.275904 -4.220437,0.810857 -5.7883,1.553627 -1.04353,0.494362 -2.419829,1.327333 -3.098405,1.875222 -0.7341,0.592716 -0.741787,0.498712 -0.01369,-0.167359 0.412799,-0.377628 0.512998,-0.513323 0.379047,-0.513323 -0.451045,0 -1.83675,0.407086 -2.69422,0.791497 -0.943608,0.423026 -1.025693,0.453664 -1.025693,0.382898 z m 14.96288,-0.183784 c 0.08351,-0.03477 -0.112086,-0.456624 -0.630521,-1.35986 -0.852108,-1.484566 -0.856153,-1.42442 0.112336,-1.670009 0.866326,-0.219689 1.923669,-0.294202 4.213625,-0.296955 3.668854,-0.0044 6.120401,0.233449 7.170151,0.695656 0.482391,0.212397 2.187486,1.282602 2.847168,1.787026 l 0.431541,0.329976 -1.417951,-0.0303 c -1.719654,-0.03679 -7.971793,0.131205 -9.36258,0.251568 -0.55162,0.0477 -1.136966,0.12622 -1.300768,0.17441 -0.314554,0.09253 -2.270499,0.204905 -2.063001,0.118511 z"
       id="path3315" /><path
       style="fill:#0055d4;fill-opacity:1;stroke-width:1;stroke-linecap:round;stroke-linejoin:round;stroke-miterlimit:12.5;stroke-dashoffset:0.19578;paint-order:stroke fill markers"
       d="m 39.51533,104.16876 56.891493,0.17641 c -10.167518,8.5223 -18.433927,12.84904 -28.225236,18.69922 -10.256179,-5.69122 -20.04921,-11.77943 -28.666257,-18.87563 z"
       id="path3316" /></g></svg>
